<?xml version="1.0" encoding="UTF-8"?>
<!DOCTYPE svg  PUBLIC '-//W3C//DTD SVG 1.1//EN'  'http://www.w3.org/Graphics/SVG/1.1/DTD/svg11.dtd'>
<svg enable-background="new 0 0 1689.998 1678.655" version="1.1" fill="white" viewBox="0 0 1689.998 1678.655" xml:space="preserve" xmlns="http://www.w3.org/2000/svg">
<path d="m1648.9 825.43c-9e-3 9e-3 -4.884 8.794-10.831 19.534 1.255-10.213 2.373-19.279 2.373-19.279l-55.052-0.017 0.042-0.238-3.692-3.301v0.045l-0.991-6.575 2.055 0.509s5.675 1.446 5.575-6.73c-0.027-4.092-0.918-5.584-1.655-6.047-0.764-0.473-1.491 0.082-1.491 0.082l2.137-4.911s-0.764-2.701-2.465-3.538c-1.691-0.837-1.2-5.375-1.2-5.375s0.155-0.346 0.382-0.864c0.236-0.527 0.537-1.219 0.818-1.91 0.573-1.391 1.155-2.792 1.155-2.792l3.965-0.518 0.473-3.074 30.056-4.038-2.346-5.547-15.842 2.355 0.118 1.855-12.568 1.446-1.146-2.355 1.928-1.055 25.754-3.701s-0.264-1.401-0.518-2.801c-0.291-1.4-0.582-2.801-0.582-2.801l-12.568 1.319-1.219 1.337-15.196 1.792-1.391-4.447 0.764-13.759-4.692-0.127-1.046-3.219-6.675 0.118-7.966 0.564-2.947-5.302 0.982-3.083-0.264-2.337 5.447 0.818 2.874 1.746 1.882-1.119 1.737-2.328s-0.082-0.782-0.218-1.955c-0.127-1.173-0.373-2.719-0.582-4.283-0.437-3.119-0.873-6.229-0.873-6.229l34.639-6.793 0.173 1.246 18.015-3.21s-0.227-2.237-0.464-4.483c-0.109-1.119-0.227-2.246-0.318-3.083-0.1-0.837-0.173-1.4-0.173-1.4l-17.97 3.419s0.018 0.273 0.055 0.682c0.027 0.418 0.064 0.964 0.1 1.519 0.073 1.1 0.146 2.201 0.146 2.201l-33.921 4.711s-0.109-0.609-0.264-1.519c-0.155-0.919-0.382-2.137-0.627-3.347l-0.982-4.856s8.421-2.073 16.842-4.138c8.421-2.092 16.833-4.192 16.833-4.192l0.964 1.755 17.943-3.592-1.855-9.158-18.561 3.919 0.946 3.665-34.039 6.111s-0.136-0.846-0.355-2.119c-0.218-1.273-0.464-2.983-0.8-4.674-0.646-3.392-1.3-6.775-1.3-6.775l13.223-3.447 0.4 2.101 12.422-2.337-1.173-6.111-11.74 2.319-0.364 1.628-13.823 2.083-0.191-4.547 8.794-1.782s-0.064-0.355-0.173-0.882c-0.091-0.537-0.237-1.237-0.4-1.946-0.3-1.41-0.609-2.819-0.609-2.819l4.229-0.891 0.328 1.491 12.695-2.637-1.455-6.684-8.576 1.237 2.073-2.983 42.306-10.404-42.315 8.83-6.166-3.328 4.711-1.719-1.828-7.494-5.747 1.71-1.446-5.948 4.193-1.055s-0.309-1.273-0.773-3.174c-0.473-1.91-1.182-4.429-1.855-6.957-1.373-5.047-2.737-10.094-2.737-10.094l5.438-1.537s-0.428-1.646-0.928-3.274c-0.491-1.637-0.973-3.274-0.973-3.274l-7.975 2.328-2.01-3.247-1.019-2.255 8.285-2.483-1.855-6.239-10.804 3.347s-0.082-0.327-0.2-0.828c-0.127-0.5-0.3-1.173-0.473-1.837-0.345-1.328-0.691-2.655-0.691-2.655l-2.019-1.919-3.483-7.503 2.21-0.737-0.573-1.746-2.519 0.846s-0.137-0.455-0.373-1.119c-0.236-0.673-0.555-1.573-0.873-2.465-0.627-1.792-1.255-3.592-1.255-3.592l2.819-0.982-0.6-1.728-4.083 1.437s-1.064-2.283-2.128-4.556c-0.536-1.137-1.073-2.273-1.473-3.128-0.391-0.855-0.673-1.41-0.673-1.41l18.725-6.884s0.245 0.409 0.482 0.818c0.236 0.418 0.464 0.828 0.464 0.828l15.724-6.402s-0.346-0.982-0.719-1.946-0.737-1.937-0.737-1.937l-2.437-0.791-14.632 5.475-0.919 1.337-16.933 5.984-2.974-5.029 17.388-6.648 0.864 1.337 16.051-6.43-1.773-3.747-15.933 5.82-0.8 1.646-15.224 4.874-2.001-2.474-1.864 0.728s-0.227-0.373-0.573-0.937-0.818-1.31-1.309-2.055c-0.964-1.482-1.928-2.965-1.928-2.965l18.397-7.73 1.437 1.764 13.586-5.429-2.346-4.847-1.828-0.964-1.555-3.792-29.31 10.886s-0.455-1.119-0.918-2.246c-0.455-1.119-0.955-2.219-0.955-2.219l28.146-11.986-0.891-2.028 1.837-0.782-0.637-1.455 3.974-1.71-1.146-2.619 3.956-1.737-1.664-3.801 2.737-1.21-0.773-1.764 2.428-1.091-0.901-2.064 4.247-1.901s-0.509-1.2-1.055-2.374c-0.555-1.173-1.101-2.346-1.101-2.346l2.419-1.109-6.602-14.141-10.058-1.582-8.057 3.956-5.529-11.104 2.965-1.51s-0.2-0.418-0.573-1.128c-0.382-0.709-0.919-1.728-1.555-2.956-1.291-2.437-3.01-5.693-4.729-8.949-0.864-1.628-1.701-3.265-2.537-4.774-0.846-1.51-1.628-2.919-2.301-4.12-1.346-2.41-2.246-4.02-2.246-4.02l-2.61 1.464-3.265-5.829-3.683-0.446-2.383-3.383-3.065 0.7-2.119-4.247-33.466 19.834s-1.528-2.574-3.047-5.147c-0.755-1.3-1.546-2.574-2.146-3.519-0.591-0.955-0.991-1.591-0.991-1.591l6.511-4.001-1.119-1.801 7.348-4.556-1.292-2.073 6.202-3.874 2.392-9.03 2.946-1.873s-0.473-0.764-0.955-1.528c-0.473-0.773-0.973-1.519-0.973-1.519l-2.792 1.792-7.875-1.382-6.821 4.456s-0.928-1.4-2.301-3.501c-1.401-2.092-3.192-4.92-5.102-7.675-3.82-5.502-7.639-11.013-7.639-11.013l48.362-34.112s-0.564-0.818-1.128-1.637c-0.564-0.818-1.146-1.619-1.146-1.619l5.684-4.047-5.311-7.284 6.72-4.902s-0.446-1.028-1.482-2.883c-0.528-0.919-1.191-2.046-2.037-3.356-0.828-1.319-1.855-2.792-3.092-4.392-4.92-6.43-7.939-7.075-7.939-7.075l-6.193 3.947s-1.219-1.591-2.437-3.174c-0.6-0.8-1.219-1.591-1.701-2.164-0.464-0.591-0.782-0.982-0.782-0.982l-4.956 3.92-2.692-3.347-36.094 28.865-0.982-1.219-10.367 8.33-4.038-5.011 3.601-2.946-1.737-2.164 25.663-21.135s-0.4-0.509-0.818-1-0.828-0.982-0.828-0.982l0.473-4.593-4.802-5.684-3.465-0.227-2.601-3.074-4.656 4.029-6.366-7.175-8.948 7.948-1.255-1.41 3.974-3.547s-2.374-2.665-4.747-5.329c-2.428-2.619-4.856-5.229-4.856-5.229l-1.71 1.582s-2.21-2.374-4.411-4.747c-1.109-1.182-2.21-2.365-3.037-3.256-0.855-0.873-1.419-1.446-1.419-1.446l-5.52 5.284-1.746-1.792-10.767 10.395-5.147-5.275 13.977-13.759-4.183-4.274 1.41-1.41-5.411-5.302-1.401 1.428-4.274-4.183-5.084 5.265-3.128-3.056c-1.591-1.491-3.183-2.983-3.183-2.983l-2.51 2.656-3.638-3.383 33.766-36.249-0.755-1.619 3.392-3.656 4.01-5.802-1.182-5.184 1.119-2.137s-0.873-0.809-1.737-1.619c-0.882-0.782-1.773-1.573-1.773-1.573l-1.555 1.728-1.991-1.319-13.623 13.687 0.882-5.438 5.074-5.711-3.747-3.328-5.047 5.747s-4.292 1.519-8.585 3.047c-2.146 0.791-4.292 1.573-5.893 2.164-1.61 0.6-2.683 1-2.683 1l-1.701-1-10.585 12.386-5.456-4.62c-1.364-1.155-2.728-2.301-3.756-3.174-1.018-0.864-1.719-1.419-1.719-1.419l2.992-3.137-2.019-2.064 5.465-6.693-4.529-3.647-5.002 6.211-2.992-2.41-3.319 4.165s-1.701-1.373-3.41-2.746c-0.846-0.7-1.728-1.355-2.374-1.855-0.655-0.5-1.091-0.837-1.091-0.837l13.823-18.152-10.576 2.337 4.683 2.665-9.221 12.159-5.62-4.301 2.019-2.646-2.283-1.746 6.211-8.23s-1.282-0.982-2.565-1.964c-1.3-0.955-2.601-1.91-2.601-1.91l-5.747 7.739-3.101-2.255-2.555 3.483-2.055-1.5-1.837 2.519c-1.355 0-3.992-9e-3 -6.702-0.091-2.701-0.082-5.475-0.227-7.139-0.491-3.056-0.509-9.612-1.41-13.004-1.864 0 0-1.501-1.037-3.01-2.083-1.519-1.009-3.047-2.019-3.047-2.019l1.482-2.21-7.293-4.802-1.455 2.228-4.938-3.247-4.483 6.993s-0.609-0.791-1.601-2.083c-1-1.291-2.383-3.065-3.91-5.038-3.092-3.929-6.83-8.667-9.467-11.513-2.61-2.883-7.193-7.384-11.195-11.068-4.038-3.638-7.421-6.584-7.421-6.584l2.956-5.966s-1.864-1.037-3.719-2.073c-0.928-0.518-1.864-1.037-2.555-1.428-0.709-0.373-1.182-0.618-1.182-0.618l-10.531-11.95s-0.8-0.418-1.983-1.046c-1.2-0.591-2.81-1.391-4.411-2.192-3.201-1.591-6.411-3.183-6.411-3.183l-1.464 2.983s-0.7-0.546-1.928-1.5c-1.237-0.955-2.992-2.374-5.184-3.965-2.192-1.628-4.774-3.538-7.575-5.611-2.819-2.064-5.847-4.356-9.03-6.53-6.33-4.42-12.95-9.103-18.679-12.759-5.693-3.71-10.34-6.766-12.614-8.021-1.846-1.064-4.583-2.565-7.794-4.274-3.201-1.701-6.857-3.647-10.595-5.429-0.964-1.046-1.919-2.073-2.855-3.083-2.101-2.274-4.101-4.447-5.929-6.43-0.909-0.991-1.782-1.937-2.601-2.828-0.828-0.864-1.591-1.673-2.292-2.419-2.819-2.974-4.574-4.82-4.583-4.829l-1.228 1.182s1.737 1.837 4.529 4.783c2.801 2.892 6.584 7.075 10.731 11.559-4.629-2.228-9.003-4.402-12.277-5.82-3.265-1.473-5.356-2.41-5.356-2.41l-16.983 52.245h-0.241l-4.274 2.455c-0.282-0.045-1.746-0.309-3.219-0.573-0.818-0.145-1.637-0.291-2.246-0.4-0.618-0.091-1.028-0.155-1.028-0.155l1.119-1.81s3.137-4.965-4.711-7.303c-7.839-2.328-6.648 1.146-6.648 1.146l-3.983-3.61s-2.81-0.073-4.129 1.291c-1.328 1.364-5.511-0.455-5.511-0.455l-4.556-3.992 0.719-3.938-2.765-1.437 5.402-29.838-6.02 0.582-2.619 15.787 1.801 0.446-2.483 12.395-2.61 0.391-0.4-2.155 4.383-25.618-5.675-0.7-2.601 12.368 0.891 1.582-2.965 15.023-4.638-0.1s-0.8-0.346-2.001-0.8c-1.209-0.455-2.819-1.055-4.429-1.664-3.219-1.209-6.448-2.419-6.448-2.419l-1.564 4.42-3.374-0.055-1.937 6.384-1.901 7.748s-1.491 0.264-2.983 0.591c-1.482 0.3-2.974 0.609-2.974 0.609l-2.637-1.855-2.31-0.446 2.455-4.947 2.546-2.219-0.491-2.128-1.682-2.346s-3.092-0.591-6.184-1.191c-1.537-0.3-3.083-0.591-4.256-0.764-1.164-0.191-1.937-0.327-1.937-0.327l4.165-35.03 1.237 0.2 2.474-18.124-8.839-1.801-2.264 18.161 4.292 1.046-5.92 33.739s-2.455-0.327-4.911-0.646c-1.228-0.164-2.455-0.327-3.374-0.446-0.919-0.127-1.537-0.191-1.537-0.191s0.609-8.639 1.228-17.279c0.582-8.648 1.173-17.297 1.173-17.297l1.964-0.4 2.083-18.17-9.294-0.964-1.955 18.861 3.774 0.191-4.62 34.276s-3.41-0.482-6.83-0.964c-1.71-0.236-3.41-0.473-4.692-0.655-1.291-0.155-2.146-0.255-2.146-0.255l0.782-13.632 2.119 0.246 1.582-12.541-6.175-0.7-1.401 11.886 1.446 0.837-2.265 13.796-4.392-1.173 1.009-8.921-5.738-0.655 0.455-4.301 1.519 0.173 1.382-12.895s-1.701-0.191-3.401-0.382c-1.701-0.191-3.401-0.318-3.401-0.318l-1.455 8.548-2.201-2.865 3.092-43.46-4.602 42.988-5.056 4.893-0.191-5.02-3.838-0.346c-0.964-0.082-1.928-0.164-2.646-0.227-0.718-0.046-1.2-0.073-1.2-0.073l-0.136 5.984-6.111-0.391 0.291-4.311s-5.22-0.327-10.44-0.664c-2.61-0.164-5.22-0.218-7.184-0.3-1.955-0.082-3.265-0.127-3.265-0.127l0.218-5.647-6.811-0.264-0.245 8.312s-0.928 0.218-1.855 0.427c-0.928 0.209-1.846 0.446-1.846 0.446l-2.455 0.3 0.182-8.648-6.493-0.082-0.155 11.304-5.484-0.4-2.446 1.3s-2.055 0.209-4.101 0.5c-2.055 0.282-4.111 0.555-4.111 0.555l-0.018-2.328-1.828 0.027 0.027 2.656-7.594 0.1-0.064-2.992-1.837 0.018 0.109 4.32s-0.628 0.073-1.564 0.182c-0.937 0.136-2.182 0.309-3.428 0.473-2.492 0.346-4.984 0.691-4.984 0.691l-0.737-19.934 1.855-0.409-1.219-16.924-4.138 0.164-1.501 2.046 0.664 15.615 0.991 1.3 0.436 17.943-5.702 1.219-0.928-18.597 1.537-0.391-1.137-17.251s-1.028 0.118-2.055 0.246c-1.028 0.145-2.046 0.291-2.046 0.291l0.591 16.951 1.31 1.255-0.082 15.996-2.974 1.182 0.118 1.992-6.848 1.764-1.646-19.88 2.128-0.8-0.946-14.605-5.338 0.673-1.482 1.428s-1.018 0.064-2.046 0.136c-1.018 0.091-2.037 0.182-2.037 0.182l1.255 31.265-4.829 0.427-2.655-30.474-2.192 0.191-0.18-1.984-1.573 0.136-0.4-4.301-2.846 0.255-0.409-4.311-4.138 0.373-0.3-2.974-1.919 0.209-0.273-2.646-2.237 0.255-0.5-4.629-5.147 0.591-0.3-2.646s-3.874 0.446-7.748 0.891c-0.964 0.109-1.937 0.218-2.846 0.327-0.9 0.118-1.746 0.236-2.474 0.337-1.446 0.209-2.41 0.336-2.41 0.336l-4.638 9.049 1.255 8.885s-3.074 0.427-6.138 0.864c-1.537 0.209-3.074 0.427-4.22 0.627-1.146 0.191-1.91 0.318-1.91 0.318l-0.518-3.283s-7.266 1.2-14.523 2.41c-7.239 1.373-14.469 2.737-14.469 2.737l0.573 2.937s-1.637 0.318-3.283 0.627c-0.818 0.164-1.637 0.318-2.246 0.437-0.618 0.136-1.028 0.227-1.028 0.227l-1.555 3.401-3.956 1.191-0.3 3.128-4.702 0.682 8.457 37.977s-2.919 0.646-5.848 1.282c-2.91 0.709-5.82 1.419-5.82 1.419l-1.782-7.43-2.055 0.5-2.046-8.403-2.383 0.582-1.755-7.102-7.848-5.102-0.864-3.374s-0.873 0.2-1.746 0.446c-0.873 0.236-1.737 0.473-1.737 0.473l0.837 3.21-3.765 7.048 2.119 7.866s-1.619 0.437-4.047 1.1c-2.419 0.664-5.675 1.482-8.876 2.474-6.42 1.91-12.85 3.82-12.85 3.82l-17.433-56.556s-0.955 0.282-1.901 0.573c-0.946 0.3-1.892 0.609-1.892 0.609l-2.092-6.666-8.576 2.783-2.583-7.903s-1.119 0.1-3.201 0.518c-2.083 0.427-5.147 1.11-8.967 2.483-7.657 2.692-9.203 5.356-9.203 5.356l1.837 7.112s-1.892 0.664-3.783 1.328c-0.946 0.327-1.883 0.682-2.583 0.955-0.709 0.264-1.173 0.446-1.173 0.446l2.192 5.92-4.029 1.528 16.278 43.26-1.455 0.555 4.711 12.432-6.02 2.292-1.692-4.338-2.592 0.982-12.159-30.947s-0.609 0.227-1.2 0.473c-0.6 0.246-1.2 0.482-1.2 0.482l-4.22-1.864-6.893 2.819-1.291 3.219-3.729 1.528 2.392 5.666-8.794 3.838 4.793 10.967-1.728 0.764-2.146-4.874s-3.274 1.437-6.539 2.865c-3.237 1.51-6.475 3.01-6.475 3.01l0.973 2.11s-2.937 1.373-5.875 2.746c-1.464 0.682-2.937 1.373-4.038 1.892-0.555 0.255-1.009 0.473-1.319 0.627-0.318 0.164-0.5 0.255-0.5 0.255l3.328 6.884-2.246 1.11 6.566 13.45-6.602 3.274-8.776-17.542-5.356 2.674-0.909-1.782s-0.427 0.209-1.064 0.527c-0.628 0.336-1.464 0.773-2.301 1.219-1.673 0.882-3.356 1.764-3.356 1.764l0.928 1.764-5.293 2.801 3.438 6.448s-1.928 1.028-3.865 2.046c-0.964 0.5-1.928 1.019-2.637 1.428-0.718 0.4-1.191 0.664-1.191 0.664l1.755 3.21-4.338 2.419-24.09-43.288-1.773 0.227-2.428-4.356-4.292-5.602-5.293-0.464-1.692-1.719s-1.037 0.573-2.064 1.155c-1.046 0.573-2.064 1.182-2.064 1.182l1.164 2.01-1.864 1.491 8.83 17.179-4.911-2.51-3.865-6.593-4.32 2.555 3.91 6.575s0.127 4.556 0.264 9.112c0.136 4.538 0.355 9.112 0.355 9.112l-1.473 1.31 8.53 13.887-12.132 7.575-2.064-3.81s-0.655 0.3-1.3 0.628c-0.646 0.327-1.291 0.655-1.291 0.655l-4.683-7.266-4.865 3.192 4.374 6.675-3.201 2.11 2.937 4.438s-1.828 1.2-3.665 2.41c-1.837 1.191-3.638 2.446-3.638 2.446l-13.023-18.734-1.019 10.795 3.965-3.638 8.739 12.504-5.82 4.029-1.892-2.728-2.364 1.637-5.911-8.439s-1.328 0.919-2.665 1.846c-1.328 0.909-2.637 1.864-2.637 1.864l5.602 7.848-3.092 2.255 2.528 3.51-2.055 1.501 1.828 2.519c-0.828 2.592-3.265 10.04-4.811 12.977-1.428 2.756-4.292 8.73-5.766 11.822 0 0-1.446 1.109-2.901 2.228-1.464 1.1-2.874 2.255-2.874 2.255l-1.655-2.083-6.793 5.475 1.673 2.064-4.602 3.71 5.275 6.42s-0.964 0.3-2.492 0.855c-1.537 0.555-3.647 1.328-5.993 2.183-2.346 0.864-4.92 1.837-7.357 2.774-1.219 0.482-2.41 0.946-3.519 1.382-1.1 0.455-2.101 0.9-2.992 1.301-3.556 1.591-9.203 4.602-13.978 7.239-4.702 2.719-8.53 5.038-8.53 5.038l-4.774-4.647-6.22 5.811-14.596 6.357s-2.574 2.483-5.056 5.065c-2.501 2.555-5.002 5.12-5.002 5.12l2.392 2.31s-0.728 0.5-2.019 1.373c-1.282 0.891-3.174 2.11-5.384 3.701-2.219 1.582-4.82 3.447-7.657 5.475-2.828 2.046-5.947 4.211-9.003 6.557-6.138 4.665-12.65 9.503-17.888 13.814-5.293 4.274-9.622 7.739-11.522 9.512-1.582 1.419-3.856 3.565-6.466 6.084-2.619 2.51-5.593 5.393-8.439 8.385-1.291 0.591-2.574 1.182-3.82 1.755-5.584 2.583-10.786 4.893-14.441 6.675-3.701 1.746-6.002 2.837-6.011 2.846l0.746 1.537s2.283-1.082 5.947-2.819c3.629-1.764 8.748-4.074 14.314-6.621-3.574 3.701-6.966 7.202-9.34 9.867-2.41 2.646-3.947 4.338-3.947 4.338l44.502 32.406-0.169 0.169 1.009 4.811 0.018-0.018c-0.091 0.164-0.828 1.537-1.564 2.91-0.8 1.455-1.528 2.956-1.528 2.956l-1.373-1.628s-3.747-4.52-8.412 2.21c-4.656 6.721-0.982 6.666-0.982 6.666s-1.164 0.664-2.337 1.328c-1.182 0.655-2.319 1.355-2.319 1.355s-0.946 2.646-0.055 4.32c0.882 1.682-2.155 5.084-2.155 5.084l-5.211 3.092-3.519-1.91s-0.564 0.546-1.119 1.091c-0.546 0.555-1.082 1.109-1.082 1.109l-26.682-14.396-1.328 5.884 14.196 7.403 0.982-1.573 11.013 6.211-0.446 2.592-2.173-0.282-22.999-12.131-2.437 5.165 10.949 6.32 1.782-0.355 13.359 7.484s-0.382 1.091-0.773 2.192c-0.4 1.082-0.764 2.192-0.764 2.192l-8.648 10.713 3.719 2.865s-0.282 0.791-0.555 1.591c-0.282 0.791-0.546 1.601-0.546 1.601l5.484 3.829 6.775 4.22-0.7 6.038-2.601 1.919-1.155 2.055-3.929-3.865-1.31-3.11-2.173-0.191-2.774 0.855s-0.382 0.691-0.955 1.719c-0.573 1.037-1.364 2.392-2.092 3.783-1.473 2.783-2.937 5.566-2.937 5.566l-32.011-14.851 0.582-1.11-16.46-7.985-4.502 7.821 16.56 7.794 2.346-3.738 30.22 16.115s-1.082 2.228-2.155 4.456c-1.037 2.246-2.064 4.502-2.064 4.502s-8.03-3.274-16.051-6.548c-8.048-3.247-16.087-6.493-16.087-6.493l0.246-1.982-16.624-7.639-3.856 8.512 17.315 7.73 1.382-3.519 31.138 15.042s-1.537 3.092-3.074 6.175c-1.455 3.128-2.919 6.248-2.919 6.248l-12.723-4.974 0.9-1.937-11.422-5.402-2.628 5.629 10.867 5.029 1.246-1.109 12.404 6.439-2.501 3.792-8.167-3.729s-0.609 1.31-1.219 2.619c-0.582 1.319-1.155 2.646-1.155 2.646l-3.947-1.773 0.609-1.391-11.831-5.32-2.737 6.266 7.666 4.038-3.419 1.191-40.359-16.433 39.432 17.715 3.046 6.32-4.838-1.382-2.919 7.139 5.647 1.992-2.31 5.666-4.011-1.61s-0.5 1.209-1.237 3.028c-0.755 1.81-1.646 4.265-2.592 6.711-1.855 4.884-3.719 9.776-3.719 9.776l-5.302-1.955s-0.618 1.591-1.173 3.201c-0.564 1.61-1.137 3.219-1.137 3.219l7.83 2.801-0.282 3.801-0.5 2.428-8.166-2.856-2.155 6.138 10.704 3.638s-0.136 0.309-0.327 0.791-0.446 1.119-0.691 1.755c-0.509 1.282-1.009 2.565-1.009 2.565l0.509 2.737-1.591 8.121-2.219-0.7-0.564 1.737 2.537 0.8s-0.155 0.446-0.355 1.128-0.473 1.591-0.746 2.501c-0.546 1.828-1.082 3.647-1.082 3.647l-2.865-0.864-0.527 1.755 4.147 1.237-1.882 9.876-19.198-5.438s0.036-0.473 0.091-0.946 0.109-0.937 0.109-0.937l-16.488-4.056s-0.3 0.991-0.555 1.992c-0.273 1-0.546 2.001-0.546 2.001l1.501 2.073 15.06 4.165 1.528-0.546 17.224 5.111-0.546 5.82-17.979-4.847 0.091-1.582-16.769-4.229-0.764 4.074 16.315 4.647 1.61-0.855 15.178 4.993 0.173 3.183 1.937 0.5s-0.036 0.446-0.091 1.1c-0.045 0.664-0.118 1.537-0.155 2.428-0.091 1.764-0.173 3.538-0.173 3.538l-19.425-4.556-0.136-2.264-14.178-3.592-0.955 5.302 0.919 1.855-0.973 3.983 30.12 8.412s-0.282 1.173-0.573 2.346c-0.3 1.173-0.546 2.355-0.546 2.355l-29.81-6.83-0.473 2.155-1.946-0.436-0.336 1.546-4.22-0.946-0.609 2.801-4.22-0.928-0.891 4.056-2.919-0.627-0.409 1.882-2.601-0.546-0.482 2.201-4.556-0.955s-0.273 1.273-0.555 2.537c-0.246 1.273-0.5 2.546-0.5 2.546l-2.601-0.527-2.937 15.333s0.436 0.446 1.1 1.128c0.673 0.673 1.573 1.573 2.465 2.474 1.81 1.792 3.619 3.583 3.619 3.583l8.849 1.528-2.028 12.232-3.283-0.509s-0.073 0.455-0.209 1.246-0.318 1.928-0.5 3.301c-0.382 2.728-0.891 6.375-1.41 10.022-0.491 3.647-1.064 7.284-1.337 10.031-0.318 2.746-0.527 4.574-0.527 4.574l2.974 0.355-0.755 6.63 2.719 2.528s-0.027 1.028-0.064 2.064c-0.018 0.509-0.036 1.028-0.045 1.419-9e-3 0.382-9e-3 0.646-9e-3 0.646l2.892 1.237-0.746 4.683 38.732 3.61-1.064 11.931-7.621-0.582s-0.045 0.527-0.082 1.055c-0.027 0.527-0.064 1.055-0.064 1.055l-8.621-0.637-0.155 2.446-7.293-0.518-7.212 5.902-3.483-0.209-0.227 3.592 3.319 0.191s1.373 1.437 2.737 2.883c1.373 1.428 2.746 2.856 2.746 2.856l8.13 0.409s-0.255 6.693-0.509 13.396c-0.064 1.673-0.127 3.347-0.182 4.911-0.027 1.573-0.045 3.037-0.064 4.292-0.027 2.51-0.055 4.183-0.055 4.183l-59.175-0.855-0.055 3.965-6.975-0.073s-0.027 2.255-0.055 4.502c-0.018 1.119-0.027 2.246-0.036 3.092 0 0.846 9e-3 1.401 9e-3 1.401l-8.321 0.018s-0.946 4.374-0.846 12.459c0.082 8.094 2.21 10.385 2.21 10.385l7.339 0.455 0.3 7.994 6.311-0.255 0.164 4.301 46.171-2.073 0.064 1.555 13.277-0.628s0.073 1.61 0.136 3.219c0.1 1.61 0.2 3.21 0.2 3.21l-4.647 0.264 0.173 2.765-33.184 1.964 0.155 2.574-3.11 3.438 0.473 7.421 2.701 2.219 0.355 4.01 6.129-0.518 0.855 9.558 11.913-1.155 0.164 1.883-5.293 0.527s0.064 0.891 0.209 2.219c0.155 1.328 0.355 3.101 0.555 4.874 0.409 3.547 0.809 7.093 0.809 7.093l2.31-0.273s0.373 3.219 0.746 6.439c0.437 3.21 0.882 6.42 0.882 6.42l7.584-1.019 0.346 2.474 14.814-2.055 1.028 7.303-19.407 2.883s0.209 1.482 0.418 2.965c0.246 1.473 0.491 2.956 0.491 2.956l-1.973 0.309 1.237 7.475 1.964-0.327 0.982 5.902 7.202-1.264s0.091 0.546 0.227 1.346c0.127 0.818 0.327 1.892 0.537 2.956l0.818 4.292 3.601-0.673 0.928 4.884-48.635 9.44-0.336 1.755-4.893 0.955-6.666 2.337-2.101 4.893-2.164 1.073s0.236 1.164 0.491 2.319c0.246 1.164 0.5 2.319 0.5 2.319l2.274-0.482 0.828 2.246 19.07-3.056-3.91 3.892-7.475 1.628 1.073 4.902 7.457-1.673s4.365 1.291 8.73 2.592c4.411 1.237 8.821 2.474 8.821 2.474l0.782 1.819 15.842-3.792s0.855 3.474 1.701 6.948c0.418 1.737 0.846 3.474 1.164 4.774 0.155 0.655 0.3 1.191 0.4 1.573 0.109 0.373 0.164 0.591 0.164 0.591l-4.265 0.782 0.427 2.855-8.367 2.201 1.519 5.62 7.703-2.092 1.009 3.71 5.129-1.419 1.146 4.238c0.273 1.055 0.6 2.11 0.828 2.892 0.236 0.791 0.391 1.319 0.391 1.319l-21.844 6.566 9.931 4.338-2.219-4.92 14.596-4.42 2.019 6.784-3.183 0.964 0.818 2.746-9.858 3.01s0.464 1.555 0.928 3.101c0.227 0.773 0.473 1.546 0.664 2.119 0.191 0.582 0.309 0.964 0.309 0.964l9.203-2.892 1.182 3.647 4.12-1.31 0.782 2.419 2.965-0.964c2.21 1.591 8.512 6.229 10.849 8.603 2.183 2.21 6.966 6.793 9.458 9.149 0 0 0.609 1.728 1.219 3.447 0.591 1.737 1.255 3.438 1.255 3.438l-2.492 0.928 3.101 8.157 2.483-0.946 2.101 5.52 7.739-3.028s-9e-3 1.01 0.045 2.637c0.055 1.628 0.136 3.874 0.227 6.366 0.1 2.501 0.218 5.247 0.364 7.866 0.136 2.61 0.3 5.093 0.527 7.021 0.427 3.874 1.546 10.176 2.583 15.533 1.119 5.32 2.164 9.676 2.164 9.676l-5.893 3.101 3.601 7.721s0.082 0.982 0.227 2.464c0.146 1.482 0.336 3.456 0.527 5.438l0.8 7.948s0.4 0.8 0.991 2.001c0.591 1.21 1.419 2.792 2.255 4.374 1.673 3.165 3.347 6.329 3.347 6.329l2.937-1.555s0.991 3.383 2.528 8.612c1.664 5.175 3.856 12.232 6.329 19.561 1.282 3.656 2.583 7.384 3.856 10.995 0.637 1.81 1.273 3.601 1.892 5.329 0.655 1.71 1.282 3.374 1.892 4.956 2.446 6.348 4.438 11.522 5.502 13.905 0.873 1.937 2.219 4.756 3.81 8.012 0.809 1.628 1.673 3.365 2.555 5.156 0.455 0.9 0.909 1.81 1.373 2.728 0.482 0.909 0.964 1.819 1.446 2.737 0.173 1.409 0.346 2.801 0.509 4.165 0.755 6.102 1.355 11.75 1.901 15.796 0.537 4.056 0.864 6.584 0.864 6.593l1.701-0.236s-0.336-2.501-0.864-6.521c-0.127-1-0.273-2.101-0.436-3.274-0.136-1.191-0.282-2.455-0.437-3.783-0.318-2.646-0.655-5.556-1.019-8.603 1.219 2.264 2.41 4.465 3.501 6.502 1.091 2.028 2.11 3.883 3.01 5.42 1.782 3.101 2.919 5.084 2.919 5.084l44.463-32.336 0.171 0.17 4.893 0.518 4.592 4.729-1.964 0.809s-5.466 2.183-0.473 8.676c4.974 6.493 6.048 2.974 6.048 2.974l1.109 5.266s2.228 1.71 4.092 1.382c1.873-0.328 4.183 3.61 4.183 3.61l1.346 5.902-2.901 2.765 1.391 2.792-21.898 20.953 5.202 3.065 11.404-11.231-1.2-1.419 9.303-8.567 2.337 1.219-0.937 1.982-18.616 18.152 4.165 3.901 9.385-8.476 0.209-1.81 11.231-10.404 3.692 2.819 7.539 11.522 3.865-2.664 2.692 2.037 5.32-4.029 6.111-5.147 5.529 2.528 1.028 3.056 1.61 1.728-4.893 2.546-3.365 0.291-0.855 2.019-0.027 2.892s2.137 2.301 4.283 4.602c2.201 2.255 4.392 4.511 4.392 4.511l-23.99 25.873-0.882-0.891-12.668 13.195 6.057 6.675 12.522-13.35-2.837-3.383 24.645-23.781s1.792 1.719 3.574 3.428c0.891 0.864 1.81 1.691 2.492 2.319 0.691 0.628 1.146 1.046 1.146 1.046s-5.584 6.62-11.177 13.25c-5.566 6.648-11.131 13.296-11.131 13.296l-1.819-0.846-12.386 13.459 6.911 6.284 12.695-14.096-2.928-2.392 23.908-24.981s2.474 2.41 4.938 4.82c1.228 1.219 2.51 2.365 3.456 3.256 0.946 0.882 1.573 1.464 1.573 1.464l-8.658 10.567-1.564-1.455-8.667 9.194 4.547 4.238 8.139-8.785-0.664-1.528 9.949-9.813 2.837 3.556-6.066 6.611 2.11 1.964c1.073 0.964 2.155 1.928 2.155 1.928l-2.901 3.201-1.146-1.01-8.703 9.603 5.111 4.538 6.211-6.047 0.073 3.629-28.092 33.302 29.028-32.029 6.948-0.946-2.801 4.174 5.875 4.984 3.647-4.756 4.665 3.947-2.774 3.319s3.974 3.401 8.085 6.648c4.074 3.283 8.139 6.557 8.139 6.557l-3.501 4.438s1.319 1.082 2.683 2.11c1.355 1.037 2.71 2.073 2.71 2.073l5.093-6.575 3.519 1.455 2.146 1.219-5.238 6.884 5.165 3.956 6.766-9.058 4.238 3.501 2.765 0.373 7.221 4.029-1.355 1.891 1.482 1.082 1.546-2.174 6.239 4.329-1.71 2.464 1.51 1.037 2.455-3.556s2.201 1.228 4.401 2.446c1.1 0.6 2.192 1.209 3.019 1.664 0.837 0.437 1.391 0.728 1.391 0.728l-11.122 16.569-1.746-0.755-8.958 14.405 3.456 2.273 2.428-0.782 8.639-13.023-0.045-1.619 10.204-14.787 5.356 2.337-10.185 15.578-1.482-0.573-9.221 14.632 3.629 1.992 9.485-14.059-0.309-1.801 9.458-12.886 3.074 0.837 1.073-1.682s0.4 0.182 1.028 0.409c0.618 0.245 1.446 0.564 2.273 0.882 1.646 0.636 3.292 1.282 3.292 1.282l-10.349 17.051-2.201-0.591-7.821 12.368 4.738 2.565 2.046-0.3 3.474 2.174 17.352-26.009s1.019 0.646 2.064 1.255c1.046 0.618 2.083 1.228 2.083 1.228l-15.751 26.218 1.901 1.128-1.028 1.71 1.364 0.809-2.21 3.71 2.464 1.464-2.201 3.72 3.583 2.119-1.51 2.583 1.664 0.982-1.337 2.301 1.946 1.146-2.328 4.029 4.529 2.537-1.31 2.31s3.401 1.91 6.802 3.81c1.71 0.955 3.41 1.901 4.693 2.619 1.273 0.7 2.146 1.146 2.146 1.146l9.067-4.611 4.211-7.93s2.737 1.446 5.484 2.892c1.373 0.728 2.746 1.446 3.774 1.992 1.028 0.537 1.728 0.873 1.728 0.873l-1.51 2.965 13.186 6.548c1.646 0.837 3.301 1.628 4.874 2.346 1.564 0.737 3.019 1.419 4.274 2.001 2.501 1.164 4.165 1.946 4.165 1.946l1.255-2.71 6.057 2.819 3.265-1.837 3.91 1.346 2.073-2.355 4.201 2.201 15.469-35.694s2.737 1.201 5.484 2.401c2.774 1.137 5.538 2.264 5.538 2.264l-2.919 7.066 1.964 0.809-3.283 7.994 2.264 0.928-2.746 6.775 3.356 8.739-1.291 3.237s0.837 0.355 1.673 0.673c0.846 0.318 1.691 0.646 1.691 0.646l1.21-3.101 7.184-3.492 2.91-7.612s1.564 0.6 3.92 1.491c2.355 0.873 5.456 2.128 8.63 3.21 6.329 2.219 12.65 4.447 12.65 4.447l-19.116 56.019s0.937 0.327 1.873 0.655c0.946 0.309 1.882 0.619 1.882 0.619l-2.219 6.62 8.576 2.783-2.555 7.912s0.964 0.582 2.901 1.464c1.937 0.873 4.811 2.137 8.712 3.265 7.775 2.319 10.594 1.064 10.594 1.064l2.692-6.83s1.919 0.573 3.838 1.146c0.964 0.291 1.928 0.555 2.656 0.746 0.727 0.2 1.209 0.327 1.209 0.327l1.701-6.075 4.156 1.128 12.241-44.57 1.51 0.409 3.492-12.832 6.22 1.673-1.191 4.511 2.683 0.719-8.339 32.193s0.627 0.164 1.246 0.327c0.628 0.155 1.255 0.309 1.255 0.309l2.319 3.992 7.23 1.764 2.937-1.846 3.919 0.946 1.391-5.993s0.582 0.164 1.464 0.346c0.873 0.191 2.046 0.446 3.219 0.7 2.346 0.518 4.692 1.028 4.692 1.028l2.565-11.695 1.846 0.4-1.128 5.202s3.492 0.755 6.975 1.519c1.746 0.4 3.501 0.691 4.82 0.955 1.31 0.255 2.192 0.418 2.192 0.418l0.446-2.283 12.741 2.446 1.346-7.53s0.618 0.118 1.237 0.209c0.618 0.109 1.237 0.209 1.237 0.209l2.583-14.733 7.266 1.201-3.201 19.352 5.911 0.973-0.309 1.973s1.864 0.309 3.738 0.609c1.873 0.264 3.756 0.528 3.756 0.528l0.291-1.973 5.92 0.828 1.01-7.239 8.658 1.209 0.455-3.629 4.938 0.564-5.938 49.19 1.564 0.846-0.582 4.956 0.173 7.048 4.01 3.474 0.364 2.383 4.702 0.536 0.246-2.319 2.383-0.064 2.946-19.079 2.501 4.902-0.746 7.603 4.993 0.446 0.7-7.612s2.564-3.774 5.138-7.557c2.528-3.783 5.056-7.557 5.056-7.557l1.973-0.164 1.255-16.242s0.891 0.091 2.228 0.164c1.337 0.091 3.119 0.2 4.902 0.318 3.565 0.218 7.13 0.446 7.13 0.446l-0.573 4.301 2.856 0.509-0.482 8.63s1.446 0.091 2.901 0.182c0.728 0.055 1.446 0.091 1.992 0.109s0.909 0.027 0.909 0.027l0.382-7.966 3.838 0.146 0.227-5.311 8.758 0.327-0.482 22.817s1.801-2.01 3.601-4.02c1.792-1.983 3.565-4.056 3.565-4.056s-0.327 0.045-0.828 0.109c-0.509 0.064-1.173 0.146-1.846 0.2-1.337 0.136-2.674 0.273-2.674 0.273l0.291-15.26s1.764 0.064 3.538 0.127c1.764 0.027 3.528 0.054 3.528 0.054l-0.064 3.319 2.865 0.046-0.182 10.304 6.466 0.082 0.082-9.64 3.829 0.045 0.018-4.329 2.546 0.036v-3.119c2.192-1.582 8.539-6.293 11.522-7.748 1.382-0.682 3.538-1.792 5.72-2.928 1.082-0.573 2.183-1.146 3.201-1.682 1.009-0.555 1.937-1.073 2.692-1.491l7.312-0.273 0.1 2.655 8.721-0.336-0.136-2.656 5.893-0.364-0.482-8.294s3.865 1.146 8.648 2.574c4.82 1.455 10.604 2.892 14.423 3.729 3.81 0.809 10.158 1.837 15.56 2.365 5.402 0.6 9.867 1.01 9.867 1.01l1.119 6.566s2.11-0.246 4.229-0.491c2.11-0.3 4.22-0.591 4.22-0.591l15.551 3.528 14.123-2.337-0.564-3.283s0.882 0.036 2.446 0.091c1.564 0.082 3.801 0.118 6.52 0.146 2.728 0.027 5.938 0.064 9.421 0.1 1.755 0.018 3.574 0.027 5.438 0.046 1.873 9e-3 3.774-0.046 5.702-0.073 3.874-0.073 7.83-0.136 11.668-0.209 0.955-0.018 1.91-0.036 2.856-0.064 0.937-0.036 1.873-0.082 2.783-0.118 1.837-0.082 3.61-0.173 5.311-0.245 6.793-0.336 12.341-0.609 14.923-0.928 2.119-0.218 5.22-0.618 8.812-1.119s7.703-1.073 11.768-1.828c1.391 0.282 2.774 0.555 4.129 0.818 3.028 0.609 5.929 1.191 8.567 1.719 1.328 0.273 2.583 0.527 3.765 0.764 1.182 0.218 2.274 0.418 3.283 0.6 4.029 0.755 6.53 1.228 6.548 1.228l0.3-1.682s-2.492-0.464-6.475-1.209c-3.974-0.691-9.485-1.855-15.487-3.047 5.065-0.919 9.876-1.728 13.368-2.501 3.501-0.737 5.738-1.201 5.738-1.201l-16.977-52.341 0.235-0.058 2.01-4.493c0.255-0.127 1.601-0.782 2.947-1.437 0.746-0.364 1.491-0.718 2.046-0.991 0.555-0.291 0.927-0.482 0.927-0.482l0.155 2.128s0.382 5.857 8.103 3.137c7.712-2.719 4.702-4.829 4.702-4.829l5.357 0.582s2.31-1.592 2.583-3.474c0.264-1.883 4.72-2.865 4.72-2.865l6.029 0.555 1.737 3.61 3.083-0.464 13.15 27.309 4.529-4.001-7.148-14.314-1.719 0.7-5.275-11.495 1.883-1.846 1.591 1.501 11.504 23.317 5.002-2.755-5.156-11.549-1.655-0.755-6.429-13.896 3.819-2.637s0.837-0.2 2.083-0.546c1.237-0.346 2.901-0.8 4.556-1.246 3.328-0.919 6.648-1.828 6.648-1.828l-1.337-4.492 2.774-1.937-2.192-6.302-3.01-7.394 4.11-4.474 3.229-0.045 2.128-0.991 0.918 5.438-0.755 3.292 1.646 1.428 2.746 0.918s2.847-1.328 5.702-2.655c1.428-0.655 2.819-1.391 3.883-1.901 1.055-0.527 1.764-0.882 1.764-0.882l17.215 30.802-1.128 0.564 8.649 16.124 8.221-3.719-8.84-16.024-4.092 1.664-15.023-30.783s2.183-1.173 4.356-2.346c2.192-1.155 4.329-2.41 4.329-2.41s4.583 7.357 9.158 14.714c4.611 7.348 9.221 14.687 9.221 14.687l-1.364 1.473 8.985 15.933 8.112-4.656-9.494-16.415-3.183 2.055-16.397-30.447s3.056-1.61 6.102-3.219c1.537-0.791 3.038-1.628 4.165-2.264 1.128-0.637 1.883-1.055 1.883-1.055l7.384 11.495-1.864 1.037 6.075 11.077 5.429-3.028-5.848-10.449-1.655 0.164-6.284-12.486 4.256-1.619 4.429 7.812s1.255-0.7 2.519-1.41c1.264-0.691 2.501-1.428 2.501-1.428l2.164 3.747-1.319 0.764 6.457 11.249 5.893-3.474-3.847-7.766 3.474 1.037 23.035 36.976-21.544-37.477 1.237-6.911 3.11 3.956s1.664-0.973 3.292-2.01c1.637-1.019 3.274-2.037 3.274-2.037l-3.41-4.929 5.193-3.246 2.301 3.665s1.109-0.691 2.774-1.737c1.673-1.018 3.865-2.446 6.048-3.892 4.365-2.874 8.73-5.757 8.73-5.757l3.146 4.702s1.428-0.946 2.847-1.883c1.401-0.973 2.801-1.946 2.801-1.946l-4.683-6.857 2.455-2.919 1.828-1.673 4.929 7.102 5.347-3.701-6.539-9.23s0.3-0.182 0.737-0.446c0.446-0.264 1.028-0.637 1.6-1.01 1.164-0.737 2.319-1.482 2.319-1.482l1.191-2.51 6.047-5.647 1.391 1.864 1.473-1.073-1.582-2.137s0.382-0.282 0.955-0.7c0.564-0.427 1.319-1.01 2.073-1.583 1.51-1.155 3.019-2.31 3.019-2.31l1.81 2.373 1.455-1.109-2.628-3.438 7.33-6.884 12.332 15.687s-0.318 0.346-0.627 0.7c-0.318 0.355-0.637 0.7-0.637 0.7l10.949 12.968s0.828-0.628 1.628-1.282c0.809-0.646 1.61-1.3 1.61-1.3v-2.556l-9.731-12.222-1.555-0.455-10.931-14.26 3.856-4.383 11.704 14.487-1.009 1.228 11.086 13.277 3.01-2.846-10.458-13.35-1.81-0.255-9.349-12.959 1.728-2.674-1.264-1.546s0.282-0.336 0.718-0.837c0.427-0.5 0.991-1.191 1.546-1.882 1.109-1.373 2.219-2.746 2.219-2.746l13.041 15.096-1.228 1.91 9.358 11.249 3.892-3.729 0.345-2.037 3.128-2.646-19.416-24.508s0.928-0.782 1.846-1.564c0.909-0.8 1.819-1.6 1.819-1.6l20.098 23.062 1.646-1.464 1.319 1.5 1.182-1.055 2.856 3.247 2.137-1.901 2.874 3.237 3.101-2.755 2.001 2.228 1.437-1.282 1.782 1.983 1.682-1.501 3.128 3.456s0.973-0.855 1.91-1.746c0.955-0.882 1.901-1.764 1.901-1.764l1.801 1.955s2.855-2.655 5.711-5.311c1.419-1.328 2.846-2.656 3.92-3.656 1.073-0.991 1.773-1.673 1.773-1.673l-1.601-10.049-6.248-6.448 8.858-8.667 2.355 2.355s5.138-5.266 10.286-10.531c2.592-2.61 5.065-5.338 6.948-7.348 1.882-2.019 3.137-3.374 3.137-3.374l-2.192-2.028 4.547-4.893-0.737-3.656 2.492-3.301-1.601-2.701 3.383-3.319-29.174-25.736s1.992-2.237 3.974-4.483c1.937-2.283 3.874-4.565 3.874-4.565l5.82 4.965 1.373-1.619 6.593 5.593 1.582-1.864 5.593 4.711 9.34-0.491 2.683 2.228s0.582-0.691 1.155-1.382c0.564-0.709 1.137-1.41 1.137-1.41l-2.574-2.11-1.1-7.912-6.33-5.12s1.046-1.301 2.619-3.256c1.573-1.974 3.71-4.547 5.72-7.23 4.083-5.311 8.157-10.631 8.157-10.631l47.334 35.531s0.618-0.782 1.191-1.591c0.591-0.8 1.173-1.601 1.173-1.601l5.602 4.165 5.311-7.275 6.73 4.883s0.846-0.737 2.292-2.292 3.501-3.929 5.784-7.275c4.62-6.657 4.311-9.722 4.311-9.722l-5.656-4.674s1.137-1.655 2.274-3.301c1.1-1.673 2.21-3.337 2.21-3.337l-5.256-3.51 2.365-3.592-38.568-25.473 0.864-1.3-11.113-7.312 3.538-5.375 3.91 2.528s0.382-0.582 0.764-1.164c0.382-0.573 0.746-1.164 0.746-1.164l28.01 17.915 1.364-2.182 4.52-0.964 3.947-6.311-0.846-3.365s0.527-0.855 1.064-1.71c0.518-0.864 1.037-1.728 1.037-1.728l-5.265-3.183 4.893-8.257-10.322-6.075 0.964-1.619 4.593 2.683s0.455-0.773 1.128-1.919c0.673-1.155 1.61-2.683 2.464-4.247 1.746-3.11 3.492-6.229 3.492-6.229l-2.037-1.137s1.582-2.828 3.165-5.656c1.61-2.819 3.092-5.702 3.092-5.702l-6.729-3.619 1.164-2.219-13.195-7.039 3.438-6.52 17.397 9.067s0.7-1.328 1.391-2.646c0.355-0.664 0.7-1.328 0.964-1.828 0.255-0.5 0.418-0.837 0.418-0.837l1.773 0.909 3.374-6.784-1.782-0.891 2.665-5.356-6.575-3.219s0.973-1.955 1.937-3.91c0.927-1.983 1.855-3.956 1.855-3.956l-3.31-1.573 2.101-4.502 44.906 20.935 1.301-1.219 4.529 2.092 6.766 2.028 4.565-2.728 2.382 0.4s0.518-1.064 0.991-2.155c0.473-1.082 0.946-2.174 0.946-2.174l-2.119-0.946 0.646-2.301-17.233-8.73 5.456-0.846 7.002 3.065 2.01-4.602-7.021-3.019s-2.783-3.62-5.556-7.23c-2.792-3.601-5.656-7.175-5.656-7.175l0.427-1.937-15.051-6.239s1.355-3.31 2.701-6.62c0.682-1.655 1.355-3.31 1.864-4.556 0.509-1.237 0.818-2.073 0.818-2.073l3.911 1.873 1.337-2.564 8.057 3.138 2.064-5.447-7.457-2.828 1.364-3.592-4.984-1.873s0.782-2.046 1.555-4.092c0.4-1.027 0.764-2.055 1.037-2.837 0.273-0.773 0.455-1.291 0.455-1.291l21.535 7.521-5.493-9.339-1.082 5.284-14.414-5.002 2.346-6.684 3.138 1.1 0.955-2.71 9.749 3.356s0.536-1.528 1.073-3.056c0.273-0.755 0.527-1.528 0.709-2.101 0.191-0.582 0.318-0.964 0.318-0.964l-9.148-3.065 1.191-3.647-4.111-1.355 0.782-2.419-2.956-0.964c-0.855-2.592-3.228-10.04-3.729-13.341-0.473-3.065-1.646-9.585-2.283-12.95 0 0 0.518-1.755 1.046-3.51 0.536-1.746 1-3.519 1-3.519l2.555 0.718 2.283-8.43-2.565-0.691 1.537-5.702-8.039-2.092s0.582-0.828 1.528-2.155c0.909-1.355 2.165-3.219 3.556-5.293 2.746-4.165 6.093-9.185 8.021-12.577 1.928-3.374 4.711-9.14 7.021-14.087 1.164-2.474 2.092-4.756 2.81-6.411 0.7-1.655 1.128-2.683 1.128-2.683l6.593 0.946 1.601-8.357s0.518-0.855 1.3-2.128c0.746-1.282 1.746-3.001 2.746-4.711 2.01-3.456 4.01-6.902 4.01-6.902s0.573-3.529 1.146-7.066c0.5-3.547 1-7.093 1-7.093l-3.292-0.464s1.173-3.319 2.992-8.457c0.937-2.565 1.882-5.62 2.974-8.93 1.073-3.338 2.237-6.939 3.419-10.613 1.182-3.683 2.228-7.475 3.328-11.158 1.064-3.683 2.119-7.257 3.028-10.54 1.719-6.566 3.074-11.922 3.656-14.469 1.019-4.156 2.246-12.277 3.538-20.462 0.709-1.237 1.41-2.464 2.1-3.665 5.993-10.822 10.913-19.698 10.922-19.716l-1.483-0.809zm-313.17-621.78l1.837-0.4-0.764 1.009-1.073-0.6v-9e-3zm-922.98-26.7l0.182-1.882 0.728 1.046-0.91 0.836zm-312.39 868.76l1.219-0.373 0.509 1.128-1.728-0.755zm48.954-19.625l2.483-0.7s0.082 0.309 0.2 0.764c0.127 0.455 0.291 1.064 0.455 1.673 0.327 1.228 0.664 2.446 0.664 2.446l4.01-1.164 0.473 1.61 3.337-0.982 1.291 4.738-11.549 3.465s-4.829 1.246-7.812-0.664c-0.764-0.491-1.391-0.982-1.91-1.446 0 0 2.083-2.446 4.165-4.893 2.101-2.428 4.193-4.847 4.193-4.847zm-19.507-377.32l0.427-2.083 17.633 4.092-0.527 2.155-17.533-4.164zm16.669 378.12s-1.664 1.937-3.337 3.874c-1.664 1.946-3.319 3.892-3.319 3.892-0.637-0.755-0.891-1.264-0.891-1.264s-0.327-1-0.655-1.992c-0.327-1-0.637-2.001-0.637-2.001l8.839-2.509zm2.519 50.418c-2.555-2.419-7.039-6.711-9.112-8.803-1.546-1.573-4.465-3.892-7.048-5.839-1.3-0.955-2.492-1.837-3.356-2.483-0.873-0.628-1.428-1.028-1.428-1.028l-0.218 0.273-0.418-1.282 0.573-0.182-0.3 0.6s1.71 0.773 4.183 2.11c2.474 1.328 5.702 3.219 8.758 5.475 4.32 3.137 8.839 7.721 11.113 10.176l-2.747 0.983zm4.484-1.601c-2.119-2.337-7.039-7.366-11.777-10.849-4.929-3.629-10.24-6.32-12.332-7.33l11.904-3.801c1.519 1.482 4.511 4.565 8.212 9.13 3.347 4.074 6.711 8.412 8.739 11.158l-4.746 1.692zm6.775-2.41l-0.355 0.127c-2.001-2.737-5.538-7.284-9.049-11.586-3.328-4.092-6.102-7.03-7.766-8.694l2.846-0.909c0.9 0.764 2.274 1.974 3.847 3.501 1.573 1.537 3.347 3.392 5.065 5.457 1.419 1.746 2.956 3.41 4.302 4.938l0.336 0.973 0.4-0.146c1.1 1.219 2.083 2.301 2.883 3.183l-3.219 1.137 0.71 2.019zm1.355-6.948l0.7-0.236 0.582 1.655c-0.4-0.446-0.827-0.919-1.282-1.419zm-1.046-15.924l0.937 2.874-3.792 1.237s0.582 1.81 1.173 3.61c0.291 0.909 0.582 1.81 0.8 2.483 0.218 0.682 0.391 1.128 0.391 1.128l-1.964 0.664c-0.655-0.728-1.264-1.482-1.901-2.246-3.11-3.747-6.402-6.793-8.403-8.53l16.669-5.329 0.3 3.065-4.21 1.044zm1151.2-809.94c0.2-2.546 0.4-5.102 0.4-5.102 0.955 0.236 1.464 0.5 1.464 0.5l3.392 2.474-5.684 7.221s0.219-2.547 0.428-5.093zm-1.21-5.384s-0.245 3.21-0.5 6.411c-0.264 3.192-0.536 6.384-0.536 6.384l-1.592 2.028-3.947-3.183-2.555 3.301-1.328-1.019-2.128 2.746-3.82-3.074 7.293-9.594s3.183-3.838 6.72-4.047c0.911-0.053 1.702-0.016 2.393 0.047zm-26.873-2.064l2.337-3.237s-1.537-1.119-3.074-2.237c-1.519-1.128-3.083-2.201-3.083-2.201l1.191-1.691c0.955 0.209 1.919 0.427 2.874 0.682 4.711 1.21 9.158 1.746 11.804 1.982l-10.367 14.105-2.037-2.31 2.792-3.31-2.437-1.783zm-3.983-26.782c3.483 0.464 9.64 1.309 12.532 1.792 2.201 0.327 5.911 0.518 9.14 0.573 1.619 9e-3 3.092 0.027 4.174 0.036h1.764l9e-3 -0.355 1.091 0.791-0.364 0.491-0.1-0.664s-1.837 0.382-4.62 0.746c-2.783 0.373-6.511 0.737-10.304 0.709-5.356 0.027-11.677-1.055-14.969-1.71l1.647-2.409zm-2.692 3.929c3.101 0.646 10.004 1.864 15.906 1.873 6.111 0.036 11.995-0.9 14.278-1.31l-7.402 10.067c-2.101-0.309-6.33-1.046-11.995-2.574-5.129-1.3-10.376-2.865-13.632-3.901l2.845-4.155zm-4.065 5.929l0.209-0.309c3.228 1.037 8.739 2.674 14.132 4.056 5.093 1.373 9.058 2.11 11.386 2.483l-1.773 2.41c-1.182-0.091-3.001-0.264-5.166-0.582-2.173-0.309-4.693-0.773-7.303-1.446-2.201-0.537-4.401-1.019-6.384-1.455l-0.846-0.582-0.245 0.346c-1.601-0.337-3.028-0.646-4.192-0.891l1.937-2.81-1.755-1.22zm2.974 6.42l-0.427 0.609-1.437-1c0.582 0.128 1.209 0.255 1.864 0.391zm-31.829-35.921c0.455 0.564 0.909 1.137 0.909 1.137l-3.474 5.929s-0.446-0.691-0.891-1.382c-0.437-0.691-0.9-1.364-0.9-1.364l-9e-3 -9e-3 3.456-5.447c-1e-3 -1e-3 0.454 0.563 0.909 1.136zm-4.311-5.093l2.082 2.364-3.41 5.147-2.237-2.301 3.565-5.21zm-1.755-1.373l-2.819 5.011-2.228-2.619 2.546-4.847 2.501 2.455zm-10.322 0.091l2.119 2.546-3.629 6.984-3.156-1.71 4.666-7.82zm-6.402 6.984l-3.356-1.873 5.574-9.576 2.983 2.637-5.201 8.812zm10.167-2.646l2.21 2.119-3.91 5.838-2.346-1.064 4.046-6.893zm0.191-10.14l1.792 1.864-2.183 4.256-2.037-2.183 2.428-3.937zm-1.6-1.428l-2.464 3.756-3.219-2.765 2.555-3.71 3.128 2.719zm-8.403-6.466l3.783 2.119-2.128 3.783h-9e-3l-3.256-2.464 1.61-3.438zm-2.592 6.257l2.683 2.146-4.792 8.239-4.302 1.128 6.411-11.513zm-36.667-40.469l-7.13 14.614c-1.164-1.273-2.628-2.874-4.274-4.674l6.539-14.169 4.865 4.229zm-58.539 20.526c-2.492-0.937-5.02-1.746-6.902-2.383-1.883-0.637-3.146-1.055-3.146-1.055l3.101-9.185s2.892 1.546 6.257 3.338c3.356 1.81 7.13 3.974 9.003 4.947 1.873 0.991 5.12 2.892 7.894 4.538 2.737 1.728 5.029 3.174 5.029 3.174l-3.01 6.957s-2.337-1.019-4.665-2.046c-1.164-0.518-2.355-0.973-3.238-1.337-0.882-0.364-1.473-0.609-1.473-0.609l1.128-2.719c-1e-3 -1e-3 -4.994-1.811-9.978-3.62zm-22.326-42.742l2.819-8.203c1.946 1.519 4.029 3.147 6.229 4.865l-2.992 8.43-6.056-5.092zm5.448 6.802l-1.537 4.356-6.711-2.992 2.21-6.448 6.038 5.084zm3.119 2.637s1.546 1.31 3.083 2.619c1.519 1.346 3.037 2.683 3.037 2.683l-0.246 0.637s-1.719-0.755-3.438-1.519c-1.737-0.709-3.474-1.428-3.474-1.428l1.038-2.992zm42.687 16.943c-1.5-1.528-3.01-3.047-4.492-4.556l3.319-7.575c1.491 1.546 3.019 3.128 4.547 4.702l-3.374 7.429zm5.175-5.557c1.6 1.655 3.174 3.301 4.702 4.893l-3.319 7.33c-1.546-1.582-3.147-3.201-4.756-4.838l3.373-7.385zm-12.068-1.346c-1.591-1.564-3.137-3.074-4.602-4.52l3.219-7.748c1.473 1.464 3.046 3.019 4.674 4.638l-3.291 7.63zm-0.718 1.673l-0.582 1.346c-1.564-1.337-3.146-2.692-4.747-4.047l0.746-1.801c1.463 1.438 3 2.947 4.583 4.502zm-1.283 2.974l-2.546 5.911-5.011-3.11 2.828-6.83c1.592 1.356 3.174 2.701 4.729 4.029zm-6.902-8.121c-1.555-1.319-3.11-2.674-4.683-3.983l1.064-2.537c1.319 1.31 2.828 2.819 4.483 4.474l-0.864 2.046zm-0.691 1.637l-3.119 7.357s-1.291-0.691-2.583-1.382c-0.646-0.337-1.301-0.682-1.782-0.946-0.491-0.246-0.819-0.409-0.819-0.409l3.62-8.603c1.573 1.3 3.128 2.664 4.683 3.983zm-6.812-7.921c-0.791-0.655-1.573-1.291-2.365-1.937-1.2-0.991-2.401-1.964-3.583-2.937l1.464-3.829c2.028 2.11 3.938 4.065 5.656 5.784l-1.172 2.919zm-0.663 1.646l-3.538 8.812-0.909-0.436-4.883-4.356 3.401-8.876c1.954 1.601 3.937 3.228 5.929 4.856zm-11.95 1.701s-1.528-1.355-3.065-2.719c-1.555-1.31-3.11-2.628-3.11-2.628l2.992-8.621c1.073 0.837 2.165 1.691 3.265 2.555 1.1 0.9 2.21 1.801 3.328 2.719l-3.41 8.694zm28.137 18.57c-0.482-0.264-0.809-0.436-0.809-0.436l2.173-4.956c1.573 1.391 3.119 2.756 4.629 4.083l-1.701 3.729s-1.273-0.718-2.546-1.437c-0.637-0.356-1.273-0.719-1.746-0.983zm2.073-7.03l0.482-1.109c1.483 1.5 2.983 3.019 4.474 4.529l-0.309 0.691c-1.509-1.337-3.064-2.71-4.647-4.111zm5.784 7.366c1.728 1.519 3.392 2.983 4.984 4.374l-1.201 2.646-5.42-3.447 1.637-3.573zm0.737-1.609l0.227-0.509c1.619 1.646 3.219 3.274 4.765 4.847l-0.018 0.027c-1.582-1.392-3.246-2.847-4.974-4.365zm5.993 7.502c1.637 1.4 3.137 2.783 4.529 4.01l-0.619 1.291s-1.291-0.655-2.583-1.31c-0.646-0.337-1.301-0.655-1.792-0.882-0.482-0.236-0.809-0.391-0.809-0.391l1.274-2.718zm1.455-3.083l3.401-7.202c1.546 1.591 2.983 3.201 4.32 4.656l-3.401 7.066c-1.346-1.419-2.774-2.983-4.32-4.52zm4.756 8.576c1.71 1.491 3.201 2.756 4.438 3.765l-0.027 0.045-4.829-2.901 0.418-0.909zm1.119-2.41l3.292-7.13c1.673 1.828 3.11 3.41 4.247 4.647l-3.374 6.921c-1.164-1.246-2.583-2.755-4.165-4.438zm4.092-27.273s1.264 0.864 2.501 1.782c1.237 0.9 2.483 1.81 2.483 1.81l-6.438 13.332c-1.355-1.455-2.783-3.074-4.338-4.665l5.792-12.259zm-2.264-1.409l-5.338 11.786c-1.528-1.591-3.11-3.228-4.693-4.883l5.047-11.022 4.984 4.119zm-7.394-4.748l-4.447 9.776c-1.537-1.582-3.074-3.165-4.574-4.72l3.692-8.448 5.329 3.392zm-13.259-8.975l5.42 3.274-3.61 8.357c-1.646-1.637-3.219-3.192-4.702-4.656l2.892-6.975zm-8.021-4.966l5.011 3.31-2.546 5.993-0.691-0.691c-1.155-1.137-2.419-2.455-3.774-3.874l2-4.738zm0.628 9.867c0.364 0.364 0.737 0.737 1.128 1.119l-3.274 7.712c-1.673-1.673-3.183-3.174-4.483-4.474l3.283-7.794c1.19 1.237 2.309 2.419 3.346 3.437zm-10.659-15.587l6.62 4.001-1.419 3.51c-1.819-1.919-3.747-4.001-5.72-6.157l0.519-1.354zm4.511 9.249l-3.21 7.985c-1.728-1.737-3.656-3.71-5.675-5.811l3.183-8.294c1.973 2.146 3.883 4.21 5.702 6.12zm-15.051-14.814l3.128 1.864c1.319 1.41 2.61 2.883 3.911 4.301l-3.283 8.33c-1.046-1.1-2.119-2.219-3.192-3.338-1.091-1.1-2.182-2.21-3.283-3.31l2.719-7.847zm-0.082 12.922c1.064 1.11 2.128 2.219 3.165 3.301l-1.655 4.201c-1.137-0.928-2.255-1.837-3.365-2.737-1.109-0.882-2.21-1.737-3.292-2.583l1.891-5.466c1.092 1.093 2.174 2.193 3.256 3.284zm-10.212-17.597l6.812 3.647-2.11 5.966c-2.055-2.083-4.065-4.12-5.938-6.011l1.236-3.602zm4.074 11.386l-2.119 5.966c-2.201-1.719-4.292-3.356-6.238-4.874l2.437-7.093c1.873 1.9 3.874 3.927 5.92 6.001zm-13.123-16.897l6.302 3.501-1.073 2.992c-2.174-2.119-4.092-3.983-5.584-5.447l0.355-1.046zm-0.964 2.828c1.528 1.501 3.428 3.347 5.566 5.429l-2.692 7.512c-2.201-1.646-4.165-3.11-5.802-4.338l2.928-8.603zm-3.51 10.304c1.655 1.228 3.601 2.683 5.784 4.311l-2.856 8.012-5.602-4.474 2.674-7.849zm-3.256 9.567l5.575 4.456-2.61 7.321-6.148-2.41 3.183-9.367zm-290.72-24.754l1.519 18.043-2.219 0.136-1.419-17.961 2.119-0.218zm-365.07 127.75s0.846-0.628 1.691-1.246c0.855-0.6 1.71-1.21 1.71-1.21l5.129 7.63s-0.591-0.255-1.482-0.627c-0.882-0.373-2.064-0.873-3.247-1.373-2.364-0.964-4.738-1.937-4.738-1.937 0.528-0.846 0.937-1.237 0.937-1.237zm-2.464 4.947c0.218-0.882 0.5-1.628 0.773-2.264 0 0 2.974 1.219 5.948 2.437 2.946 1.21 5.92 2.501 5.92 2.501l1.437 2.137s-0.273 0.173-0.673 0.427c-0.4 0.246-0.937 0.582-1.464 0.937-1.055 0.691-2.11 1.391-2.11 1.391l2.346 3.447-1.373 0.955 1.964 2.865-4.101 2.701-6.884-9.894c-1e-3 -1e-3 -2.674-4.211-1.783-7.64zm-1.901 23.345l-2.81 1.228-2.301-3.674-2.437 1.782-2.364-3.219-6.129 4.483-1.246-1.664c0.518-0.818 1.037-1.655 1.555-2.501 2.592-4.12 4.465-8.185 5.502-10.64l10.23 14.205zm-11.377-15.797c-0.9 2.201-2.874 6.702-5.747 11.258-1.219 1.892-2.337 3.847-3.365 5.611l-0.818 0.628 0.264 0.336c-0.818 1.419-1.546 2.692-2.137 3.729l-2.073-2.71-1.701 1.291-0.227-0.291c0.982-1.382 2.292-3.256 3.719-5.375 1.437-2.119 2.974-4.511 4.492-6.821 2.856-4.429 4.783-7.976 5.847-10.085l1.746 2.429zm-8.111 19.871l-1.391 1.073c0.291-0.527 0.609-1.073 0.946-1.664l0.445 0.591zm5.256-23.836c-0.937 1.91-2.937 5.711-6.129 10.64-2.856 4.438-5.911 8.994-7.903 11.768l-3.083-3.983c0.782-1.391 1.992-3.619 3.237-6.22 1.237-2.601 2.501-5.575 3.438-8.339 1.91-5.811 2.819-11.695 3.137-14.005l7.303 10.139zm-14.487 3.265c1.037-1.946 2.328-5.466 3.374-8.512 0.509-1.537 0.973-2.937 1.319-3.956 0.327-1.037 0.527-1.682 0.537-1.682l-0.336-0.127 1.091-0.791 0.355 0.491-0.664-0.109s-0.2 1.873-0.7 4.638c-0.509 2.765-1.3 6.429-2.492 10.031-1.655 5.056-4.602 10.786-6.239 13.714l-1.782-2.31c1.508-3.184 4.2-8.777 5.537-11.387zm-33.812 38.714l4.574 5.138-3.174 0.846-9e-3 9e-3 -4.12-4.965 2.729-1.028zm-18.024 16.733s0.864-0.509 1.719-1.019c0.846-0.509 1.719-1 1.719-1l6.775 7.666s-0.709 0.637-1.41 1.3c-0.709 0.655-1.41 1.31-1.41 1.31l-7.393-8.257zm5.038 8.53l-0.255 4.447-8.967-9.649 2.856-1.892 6.366 7.094zm0.509-11.113l3.083-1.237 5.52 5.593-2.592 2.492-6.011-6.848zm5.293-2.255l2.683-1.455 4.347 5.52-1.728 1.901-5.302-5.966zm2.528-10.113l3.838 4.829-2.865 1.428-3.865-5.002 2.892-1.255zm-4.738 2.51l3.901 4.22-3.174 1.319-3.829-3.92 3.102-1.619zm-5.056 3.174l3.374 3.383-2.701 1.273-2.992-3.529 2.319-1.127zm-5.966 3.265c0.882-0.546 1.792-1.055 1.792-1.055l2.81 3.492s-0.919 0.536-1.819 1.1c-0.9 0.555-1.81 1.109-1.81 1.109l-2.746-3.574c0 1e-3 0.891-0.536 1.773-1.072zm-3.783 1.991l2.946 3.192-3.347 2.346-2.774-2.592 3.175-2.946zm-27.828 49.017l-4.247 3.701-0.737-0.682c1.946-1.164 3.61-2.192 4.947-3.065l0.037 0.046zm-30.037 17.925l4.829 4.238-4.511 3.81-5.62-4.802c1.782-1.1 3.555-2.182 5.302-3.246zm-6.657 2.082l-1.473-1.264c1.819-0.946 3.729-1.937 5.693-2.965l1.1 0.964c-1.755 1.083-3.529 2.165-5.32 3.265zm7.184-5.784c1.892-0.937 3.792-1.892 5.702-2.846l0.555 0.509c-1.737 1.028-3.519 2.073-5.338 3.147l-0.919-0.81zm2.246 1.992c1.81-1.073 3.583-2.119 5.32-3.137l3.019 2.765-4.292 3.965-4.047-3.593zm5.739-5.975c2.064-1.037 4.101-2.046 6.075-3.037l0.027 0.027c-1.81 1.073-3.71 2.21-5.684 3.383l-0.418-0.373zm1.718 1.573c1.982-1.182 3.883-2.31 5.693-3.392l2.146 1.955-4.947 4.092-2.892-2.655zm7.685-4.583c1.837-1.128 3.619-2.11 5.211-3.065l1.037 0.982s-1.019 1.028-2.037 2.055c-1.037 1.019-2.028 2.083-2.028 2.083l-2.183-2.055zm-2.483-2.337l-5.811-5.456c2.01-0.973 3.983-1.837 5.775-2.674l5.666 5.42c-1.756 0.855-3.693 1.719-5.63 2.71zm-2.182 1.091c-1.982 0.982-4.01 2.001-6.066 3.028l-5.984-5.493c2.064-1.009 4.111-2.001 6.102-2.956l5.948 5.421zm-8.358 4.174c-1.919 0.955-3.838 1.919-5.72 2.865l-6.184-5.493c1.937-0.946 3.91-1.91 5.884-2.874l6.02 5.502zm-8.694 4.42c-1.983 1.028-3.892 2.028-5.72 2.983l-6.375-5.456c1.846-0.955 3.81-1.964 5.847-3.019l6.248 5.492zm-6.056 7.394c-1.737 1.073-3.483 2.146-5.229 3.219l-2.083-1.792c1.646-0.846 3.547-1.819 5.629-2.892l1.683 1.465zm-3.056-2.656c-2.11 1.073-4.01 2.046-5.638 2.883l-6.393-5.529c1.546-0.746 3.001-1.455 4.292-2.119 0.455-0.236 0.928-0.473 1.419-0.728l6.32 5.493zm-5.238 7.839c-0.864 0.555-1.719 1.1-2.574 1.646-1.31 0.846-2.61 1.682-3.901 2.501l-3.183-2.574c2.628-1.282 5.084-2.492 7.248-3.592l2.41 2.019zm-3.829-3.201c-2.183 1.109-4.656 2.319-7.275 3.601l-6.911-5.602c2.655-1.21 5.211-2.392 7.584-3.519l6.602 5.52zm-5.474 9.167c-1.228 0.791-2.446 1.573-3.638 2.346-1.182 0.791-2.337 1.564-3.474 2.328l-4.611-3.492c1.373-0.691 2.755-1.382 4.129-2.073 1.382-0.673 2.765-1.337 4.111-1.982l3.483 2.873zm-10.386 6.875c-2.319 1.564-4.52 3.046-6.566 4.42l-5.993-4.511c2.392-1.191 4.938-2.464 7.548-3.765l5.011 3.856zm1.419 1.091l7.093 5.456-6.721 4.174-6.93-5.22c2.056-1.381 4.248-2.855 6.558-4.41zm3.283-2.201c1.137-0.755 2.283-1.528 3.456-2.31 1.182-0.764 2.383-1.546 3.601-2.328l7.212 5.929s-1.764 1.046-3.529 2.083c-1.728 1.073-3.465 2.137-3.465 2.137l-7.275-5.511zm9.903-6.456c2.119-1.355 4.274-2.737 6.448-4.129l7.284 6.093-0.7 0.728-5.647 3.292-7.385-5.984zm9.485-6.075c1.728-1.091 3.501-2.146 5.238-3.219l6.029 5.238s-1.055 1.019-2.11 2.037c-0.527 0.509-1.055 1.019-1.446 1.401l-0.646 0.646-7.065-6.103zm16.215 14.15c2.765-2.628 5.984-5.547 7.493-7.03 1.519-1.464 4.32-3.983 6.757-6.102 2.483-2.064 4.565-3.801 4.565-3.801l5.684 5.011s-1.691 1.91-3.383 3.81c-0.855 0.946-1.655 1.937-2.283 2.665-0.609 0.728-1.028 1.219-1.028 1.219l-2.237-1.919s-3.265 4.183-6.53 8.376c-1.655 2.073-3.21 4.22-4.401 5.82-1.182 1.591-1.973 2.665-1.973 2.665l-7.775-5.784c0-1e-3 2.365-2.283 5.111-4.93zm26.145-41.887c-1.546 0.728-3.41 1.61-5.502 2.601l-5.766-5.338c2.255-1.028 4.202-1.91 5.729-2.61l5.539 5.347zm-18.551-17.906l11.704 11.295c-1.573 0.718-3.538 1.619-5.766 2.628l-11.458-10.595 5.52-3.328zm-10.868 7.611c0.473-0.346 1.091-0.791 1.71-1.246 1.246-0.9 2.483-1.801 2.483-1.801l10.695 10.231c-1.801 0.837-3.774 1.71-5.775 2.683l-9.867-9.294c-1e-3 0 0.3-0.227 0.754-0.573zm-2.801 2.283l9.558 8.721c-1.983 0.964-4.029 1.955-6.084 2.956l-8.93-8.203 5.456-3.474zm-6.784 5.566l7.921 7.257c-1.983 0.964-3.965 1.937-5.902 2.883l-6.893-6.12 4.874-4.02zm-7.848 5.702l6.83 6.011c-2.055 1.055-4.029 2.073-5.875 3.028l-5.738-4.911 4.783-4.128zm-7.284 6.475l4.911 4.274c-0.291 0.155-0.591 0.309-0.873 0.455-1.437 0.746-3.083 1.537-4.856 2.383l-3.883-3.365 4.701-3.747zm-7.394 6.447l2.91 2.437c-2.392 1.137-4.965 2.328-7.621 3.538l-1.128-0.918 5.839-5.057zm-11.649 10.959c1.737-0.818 3.547-1.591 5.293-2.392l6.902 5.702c-1.364 0.655-2.755 1.328-4.156 2.001-1.382 0.7-2.774 1.4-4.156 2.092l-6.63-5.011 2.747-2.392zm-4.793 5.383l5.011 3.856c-2.619 1.31-5.165 2.583-7.548 3.774l-3.047-2.292 5.584-5.338zm-13.614 12.232l5.284-4.902 2.51 1.955c-2.692 1.401-5.056 2.637-6.911 3.61l-0.883-0.663zm2.392 1.791c1.892-0.991 4.247-2.219 6.884-3.592l6.311 4.874c-2.255 1.591-4.247 2.992-5.92 4.174l-7.275-5.456zm8.703 6.53c1.682-1.191 3.674-2.583 5.902-4.156l6.73 5.202-5.993 3.929-6.639-4.975zm16.005 11.995l-7.921-5.929 5.975-3.91 6.157 4.747-4.211 5.092zm6.73-7.775l-5.447-4.101 6.711-4.165 3.656 2.819-4.92 5.447zm7.257-8.494l-2.519-1.91s1.719-1.064 3.438-2.119c1.746-1.028 3.492-2.055 3.492-2.055l0.518 0.427s-1.246 1.4-2.492 2.801c-1.218 1.428-2.437 2.856-2.437 2.856zm-45.134 841.82l-4.665 2.746c-0.455-2.046-0.909-4.065-1.346-6.02l3.565-2.028 2.446 5.302zm-9.776-1.128c0.327 2.119 0.646 4.229 0.964 6.32l-7.121 4.192c-0.309-2.137-0.618-4.311-0.937-6.475l7.094-4.037zm-7.457 1.464c-0.318-2.274-0.637-4.52-0.946-6.711l6.984-3.983c0.336 2.183 0.682 4.429 1.028 6.702l-7.066 3.992zm7.621-11.595l0.027-0.018c0.473 2.055 0.964 4.21 1.482 6.448l-0.491 0.273c-0.345-2.274-0.691-4.52-1.018-6.703zm1.355 19.771c0.373 2.201 0.737 4.329 1.082 6.348l-7.148 4.392c-0.346-2.046-0.709-4.229-1.082-6.493l7.148-4.247zm1.018-4.247c-0.318-2.073-0.646-4.183-0.964-6.293l0.655-0.373c0.437 1.973 0.891 3.992 1.355 6.057l-1.046 0.609zm1.801 2.573c0.491 1.992 0.982 4.01 1.482 6.048l-1.655 1.019c-0.346-2.019-0.709-4.147-1.082-6.32l1.255-0.747zm2.374 9.704c0.482 1.983 0.964 3.983 1.446 5.975l-2.346 1.428c-0.3-1.837-0.637-3.947-1.009-6.257l1.909-1.146zm2.364 9.503c0.255 0.982 0.518 1.964 0.782 2.947 0.4 1.5 0.791 2.992 1.182 4.474l-3.428 2.237c-0.418-2.892-0.818-5.593-1.2-7.994l2.664-1.664zm2.828 10.667c0.746 2.828 1.464 5.602 2.246 8.221l-4.747 3.31c-0.491-3.037-0.891-6.138-1.31-9.103l3.811-2.428zm3.338 12.005c0.782 2.683 1.519 5.238 2.201 7.603l-6.138 4.311c-0.4-2.637-0.828-5.447-1.273-8.321l5.21-3.593zm1.482-1.019l7.366-5.065 1.919 7.666-7.102 4.993c-0.682-2.374-1.419-4.911-2.183-7.594zm8.858-6.102l3.81-2.61 3.683 6.348-5.584 3.92-1.909-7.658zm-0.973-3.956s-0.127-0.491-0.3-1.228c-0.182-0.737-0.427-1.71-0.646-2.71-0.436-1.973-0.882-3.956-0.882-3.956l0.573-0.364s0.946 1.619 1.901 3.237c0.464 0.819 0.964 1.61 1.328 2.21 0.373 0.6 0.618 1 0.618 1l-2.592 1.811zm-1.801-0.2c0.182 0.746 0.3 1.237 0.3 1.237l-7.484 5.229c-0.773-2.601-1.482-5.356-2.219-8.157l7.857-5.029s0.446 1.991 0.891 3.992c0.219 1 0.464 1.991 0.655 2.728zm-10.267-4.947c-0.646-2.437-1.3-4.911-1.955-7.402l8.03-5.056 0.482 0.882 1.41 6.393-7.967 5.183zm-2.865-10.895c-0.482-1.991-0.964-3.992-1.446-5.975l6.83-4.129 2.592 5.256-7.976 4.848zm-2.337-9.64c-0.5-2.037-0.991-4.047-1.473-6.038l5.529-3.283 2.237 5.447-6.293 3.874zm-0.709-19.597l-3.419 1.937c-0.509-2.246-1.009-4.401-1.482-6.457l2.528-1.437 2.373 5.957zm-2.801-8.221l-2.628 1.446c-0.455-2.119-0.891-4.092-1.291-5.92l1.264-0.682 2.655 5.156zm-5.766-12.323l2.219 5.175-0.873 0.491c-0.509-2.21-0.973-4.101-1.391-5.638l0.045-0.028zm0.155 15.415l-6.975 3.838c-0.264-2.228-0.518-4.347-0.746-6.32l6.902-3.719c0.255 1.945 0.528 4.027 0.819 6.201zm-1.91-14.478c0.227 1.691 0.491 3.738 0.791 6.02l-6.857 3.847c-0.282-2.456-0.527-4.574-0.718-6.248l6.784-3.619zm-25.791-64.413l1.282 2.228-7.321 3.21-0.546-3.01 6.585-2.428zm2.847 7.557l-8.366 3.601-0.227-3.301 7.03-3.529 1.563 3.229zm-17.97-12.632l6.293-2.765-0.173 3.283v9e-3l-5.993 2.383-0.127-2.91zm0.545 8.121l-0.3-3.138 5.784-2.164 0.464 3.174-5.948 2.128zm0.628 2.137l5.22-2.401 0.273 3.419-4.902 2.437-0.591-3.455zm1.819 8.349l-0.355-2.556 4.256-2.164 0.382 2.965-4.283 1.755zm0.9 4.137c-0.218-1.019-0.446-2.037-0.446-2.037l4.201-1.601s0.209 1.046 0.464 2.082c0.255 1.028 0.5 2.064 0.5 2.064l-4.247 1.501c1e-3 1e-3 -0.235-1.008-0.472-2.009zm2.556 8.14l-1.828-3.929 3.947-1.819 1.2 3.911-3.319 1.837zm3.455-10.513c-0.227-0.964-0.409-1.946-0.409-1.946l9.376-4.083s0.373 0.882 0.791 1.755c0.409 0.864 0.809 1.737 0.809 1.737l-10.131 4.483c1e-3 0-0.217-0.973-0.436-1.946zm2.319 6.957l-0.928-3.301 8.721-3.865 4.147 1.61-11.94 5.556zm5.948 54.291l14.35-7.657c0.2 1.719 0.446 3.865 0.737 6.293l-13.614 7.639-1.473-6.275zm2.301 7.749l13.032-7.021c0.236 1.983 0.482 4.111 0.746 6.339l-11.868 6.521-1.91-5.839zm4.538 14.568l-1.637-6.257 11.24-6.411c0.309 2.182 0.637 4.429 0.955 6.702l-10.558 5.966zm1.591 1.91l9.33-5.311c0.318 2.192 0.637 4.365 0.946 6.502l-7.948 4.674-2.328-5.865zm2.992 9.231l7.812-4.647c0.382 2.283 0.746 4.465 1.091 6.511l-6.439 3.956-2.464-5.82zm3.938 8.921l5.584-3.365c0.046 0.327 0.1 0.655 0.155 0.964 0.273 1.601 0.527 3.401 0.782 5.356l-4.402 2.665-2.119-5.62zm6.875 16.133l-3.028-7.111 3.21-2.019c0.355 2.628 0.7 5.438 1.037 8.339l-1.219 0.791zm1.218-14.133c-0.227-1.71-0.455-3.301-0.691-4.738-0.082-0.509-0.173-1.028-0.264-1.564l7.175-4.329c0.373 2.337 0.718 4.438 1.009 6.257l-7.229 4.374zm0.546 4.011l7.293-4.583c0.373 2.419 0.773 5.138 1.191 8.03l-7.448 4.847c-0.336-2.892-0.681-5.684-1.036-8.294zm2.765 19.143c-0.364-0.828-0.709-1.673-0.709-1.673-0.209-1.928-0.418-3.865-0.637-5.784l7.548-4.82c0.427 3.001 0.828 6.129 1.328 9.194l-6.811 4.756c-1e-3 0-0.356-0.836-0.719-1.673zm6.32 11.486l-3.374-6.948 5.211-3.583c0.436 2.892 0.873 5.711 1.273 8.339l-3.11 2.192zm4.074 9.776s-0.764-1.637-1.528-3.265c-0.382-0.818-0.764-1.628-1.046-2.246-0.273-0.618-0.455-1.027-0.455-1.027l2.628-1.792c0.473 3.01 0.955 5.62 1.3 7.694l-0.899 0.636zm2.446-1.728c-0.364-2.119-0.837-4.711-1.3-7.666l6.575-4.492c0.791 2.637 1.546 4.956 2.146 6.921l-7.421 5.237zm8.885-6.275c-0.609-1.973-1.355-4.283-2.137-6.893l7.021-4.802s0.118 0.437 0.282 1.082c0.182 0.646 0.418 1.51 0.655 2.374 0.482 1.728 0.955 3.456 0.955 3.456l-6.776 4.783zm8.258-5.829s-0.482-1.719-0.955-3.447c-0.236-0.855-0.473-1.719-0.646-2.364-0.182-0.637-0.282-1.073-0.282-1.073l6.411-4.392s0.209 0.355 0.546 0.873 0.782 1.219 1.228 1.91c0.891 1.391 1.782 2.783 1.782 2.783l-8.084 5.71zm0.927-42.942s-1.446-2.956-3.119-6.375c-1.61-3.474-3.438-7.403-4.374-9.294-0.919-1.91-2.501-5.32-3.719-8.321-1.2-3.001-2.219-5.511-2.219-5.511l6.52-3.865s1.3 2.192 2.592 4.383c1.273 2.21 2.646 4.356 2.646 4.356l-2.51 1.537s2.992 4.392 5.975 8.785c0.746 1.091 1.491 2.192 2.192 3.219 0.728 1.01 1.4 1.955 1.982 2.765 1.155 1.619 1.928 2.701 1.928 2.701l-7.894 5.62zm221.43 235.03l-1.846-1.055 9.376-15.496 1.882 1.182-9.412 15.369zm369.71 149.15l-1.246 1.401 0.018-1.273 1.228-0.128zm-1.092-39.104l-4.192-0.046 0.336-9.185 5.338 8.794c-0.918 0.364-1.482 0.437-1.482 0.437zm7.948-9.749s-0.309 4.974-3.046 7.257c-0.7 0.591-1.364 1.009-1.964 1.355 0 0-1.682-2.755-3.365-5.52-1.655-2.755-3.319-5.52-3.319-5.52l0.1-2.574 5.047 0.309 0.127-4.174 1.682 0.064 0.091-3.474s1.228 0.091 2.455 0.136c1.219 0.046 2.446 0.091 2.446 0.091l-0.254 12.05zm25.728 19.634c-1.982 0.973-5.093 3.101-7.73 4.984-2.619 1.882-4.802 3.447-4.811 3.456l0.191 0.3-1.346-0.018 9e-3 -0.609 0.473 0.482s1.264-1.373 3.292-3.292c2.028-1.964 4.829-4.483 7.912-6.739 4.311-3.156 10.058-5.875 13.105-7.339l0.082 2.919c-3.084 1.727-8.558 4.546-11.177 5.856zm-9.304-25.154c0.755-0.018 1.51-0.027 1.51-0.027l0.018 3.992 7.584-0.091 0.027 2.073c-0.891 0.373-1.801 0.746-2.719 1.128-2.264 0.928-4.365 1.955-6.193 2.919s-3.374 1.801-4.511 2.483l0.082-17.506 3.001 0.7-0.309 4.32c1e-3 0 0.756 0.027 1.51 9e-3zm0.219 11.895c1.937-1.046 4.247-2.192 6.757-3.219 2.092-0.855 4.156-1.728 6.02-2.528l1.028-9e-3 -9e-3 -0.427c1.491-0.655 2.828-1.237 3.91-1.71l0.091 3.41s0.528 0 1.064-0.027c0.537-0.018 1.064-0.036 1.064-0.036l0.018 0.373c-3.219 1.128-8.639 2.883-13.814 4.965-2.464 0.973-4.602 1.91-6.384 2.737-1.792 0.809-3.228 1.473-4.274 2.001l9e-3 -2.992h9e-3c1.009-0.619 2.574-1.501 4.511-2.538zm13.732-8.749l1.755-0.027c-0.546 0.246-1.128 0.491-1.737 0.764l-0.018-0.737zm-14.014 14.142c1.882-0.882 4.22-1.91 6.957-3.001 4.911-1.964 10.067-3.647 13.314-4.793l0.136 5.038c-2.883 1.373-9.185 4.283-13.95 7.776-2.492 1.819-4.774 3.792-6.648 5.529-1.873 1.71-3.319 3.147-4.129 3.983l0.064-12.495c0.936-0.491 2.373-1.173 4.256-2.037zm59.484-3.456l-0.673-6.839 3.065 1.137h9e-3l0.4 6.439-2.801-0.737zm4.811 1.264l-0.264-6.166 3.156 0.564 0.182 6.311-3.074-0.709zm5.302 0.8l-0.664-5.72 3.338 0.837 0.791 5.411-3.465-0.528zm-0.592-14.869l2.519-0.509 0.773 7.957-3.028-0.437-0.264-7.011zm4.511 0.164s0.891-0.1 1.782-0.245c0.882-0.136 1.773-0.273 1.773-0.273l0.819 9.076s-0.8-0.191-1.601-0.382c-0.8-0.182-1.601-0.4-1.601-0.4l-1.172-7.776zm3.319 15.378c-0.637-0.1-1.273-0.227-1.273-0.227l-0.737-4.72s0.727 0.164 1.464 0.282c0.728 0.127 1.464 0.255 1.464 0.255l0.336 4.62c-0.044-0.01-0.644-0.11-1.254-0.21zm2.128-16.26l3.82-0.437 1.119 11.022-3.965-0.4-0.974-10.185zm1.265 16.651l-0.218-4.492 4.238 0.364 0.118 4.502-4.138-0.374zm4.628-15.914l2.819-3.419 1.573 13.077-3.428-0.173-0.964-9.485zm1.674 16.742l-0.5-4.32 4.092 0.1 0.709 3.729-4.301 0.491zm51.354-23.235l5.62-0.473 0.191 0.982c-2.255-0.209-4.201-0.364-5.802-0.455l-9e-3 -0.054zm0.345 1.964c1.682 0.318 3.71 0.709 5.984 1.146l1.519 7.712c-2.428-0.509-4.52-0.937-6.166-1.282l-1.337-7.576zm62.304 4.874l1.064 3.956c-2.883-0.509-5.575-0.973-7.975-1.355l-0.764-3.046c1.019 0.055 2.037 0.118 3.047 0.173 1.554 0.09 3.1 0.181 4.628 0.272zm-0.055-12.968s1.828-0.4 3.665-0.791c1.828-0.446 3.647-0.882 3.647-0.882l0.919 3.028s-2.01-0.155-4.029-0.309c-2.019-0.191-4.038-0.391-4.038-0.391l-0.164-0.655zm0.619 2.401s2.037 0.2 4.074 0.391c2.037 0.155 4.065 0.309 4.065 0.309l2.646 8.73c-1.364-0.046-2.746-0.1-4.156-0.146-1.41-0.082-2.837-0.164-4.283-0.245l-2.346-9.039zm10.376-5.175l7.184-1.519 2.001 6.52-7.875-0.573-1.31-4.428zm-3.256 16.179c1.419 0.055 2.819 0.1 4.183 0.155l1.682 5.538c-1.528-0.255-3.056-0.5-4.565-0.755-1.519-0.273-3.019-0.546-4.501-0.809l-1.128-4.374c1.465 0.081 2.911 0.163 4.329 0.245zm5.084-10.004l7.885 0.564 2.546 8.294c-2.465-0.082-5.111-0.182-7.903-0.282l-2.528-8.576zm-13.223 7.839c-2.519-0.146-5.084-0.3-7.657-0.446l-2.31-9.212 0.991-0.182 6.511 0.664 2.465 9.176zm-16.051-21.643c-3.783 0.473-8.094 1.018-10.194 1.282-2.092 0.3-5.838 0.664-9.058 0.964-3.219 0.246-5.929 0.391-5.929 0.391l-1.646-7.393s2.492-0.546 4.974-1.091c2.483-0.6 4.956-1.2 4.956-1.2l0.682 2.865s5.102-1.455 10.203-2.919c2.564-0.7 5.084-1.546 6.984-2.128 1.901-0.6 3.165-0.991 3.165-0.991l2.892 9.249c1e-3 -3e-3 -3.255 0.443-7.029 0.971zm5.193 22.707l0.628 2.683c-1.828-0.264-3.947-0.627-6.248-0.973l-0.509-2.173c2.037 0.145 4.092 0.345 6.129 0.463zm-6.53-2.191l-1.801-7.784s1.455-0.2 2.91-0.409c1.455-0.182 2.892-0.427 2.892-0.427l2.128 9.085c-2.036-0.12-4.092-0.32-6.129-0.465zm-21.007 2.191l1.61 7.957c-2.264-0.409-4.511-0.809-6.684-1.2l-1.619-7.885c2.182 0.364 4.429 0.746 6.693 1.128zm-7.057-2.91l-9e-3 -0.027c2.101 0.191 4.311 0.4 6.593 0.609l0.118 0.555c-2.282-0.391-4.528-0.764-6.702-1.137zm7.894-4.929s1.455-0.164 2.901-0.327c1.464-0.155 2.901-0.364 2.901-0.364l1.164 5.284c-2.083-0.145-4.147-0.391-6.148-0.573l-0.818-4.02zm7.348 6.33l0.264 1.191c-2.073-0.291-4.192-0.691-6.284-1.037l-0.146-0.737c2.001 0.183 4.074 0.437 6.166 0.583zm0.654 2.964l1.764 8.085c-2.11-0.328-4.283-0.755-6.439-1.128l-1.637-7.994c2.111 0.346 4.23 0.747 6.312 1.037zm0.801-10.722l5.884-0.418 1.728 7.184c-2.092-0.164-4.156-0.328-6.202-0.491l-1.41-6.275zm8.021 8.503l0.455 1.892c-2.028-0.309-4.165-0.627-6.357-0.955l-0.318-1.428c2.055 0.164 4.128 0.328 6.22 0.491zm-19.262-7.147l0.782 3.847c-2.301-0.209-4.502-0.418-6.602-0.609l-0.591-2.855 6.411-0.383zm-6.02 14.204c-1.091-0.209-2.164-0.4-3.201-0.591-1.046-0.218-2.055-0.427-3.028-0.627l-1.391-7.712c0.964 0.182 1.964 0.373 2.992 0.573 1.019 0.173 2.073 0.346 3.147 0.527l1.481 7.83zm-5.229-11.449c-1-0.1-1.973-0.2-2.901-0.291l-0.255-1.419s1.428-0.218 2.865-0.446c1.419-0.264 2.847-0.518 2.847-0.518l0.564 2.946c-1.074-0.09-2.12-0.181-3.12-0.272zm-6.138 26.337l-2.81-16.024c1.692 0.355 3.81 0.791 6.211 1.291l3.019 15.305-6.42-0.572zm11.158 0.263c-1.537 0-3.074-9e-3 -3.074-9e-3l-2.619-14.569c1.955 0.409 4.056 0.828 6.248 1.209l2.51 13.323c0 1e-3 -1.528 0.019-3.065 0.046zm5.729-0.227l-2.61-12.677c2.183 0.391 4.42 0.8 6.675 1.2l2.392 11.886-6.457-0.409zm14.087-0.81c-0.591 0.036-1.382 0.082-2.165 0.127-1.582 0.091-3.156 0.191-3.156 0.191l-2.146-10.531c2.174 0.382 4.356 0.8 6.475 1.128l1.973 9.003c1e-3 1e-3 -0.39 0.037-0.981 0.082zm0.173-18.451c2.21 0.328 4.347 0.646 6.384 0.946l1.946 8.167c-2.055-0.318-4.247-0.655-6.511-1.009l-1.819-8.104zm4.201 18.761l-1.983-8.876c2.292 0.355 4.483 0.691 6.539 1.009l1.755 7.348-6.311 0.519zm5.966-17.234c2.337 0.364 4.438 0.691 6.257 0.973l1.919 8.239c-1.682-0.282-3.283-0.591-4.72-0.809-0.509-0.082-1.037-0.164-1.573-0.245l-1.883-8.158zm8.821 16.07c-0.564 0.027-1.319 0.054-2.064 0.091-1.5 0.064-3.001 0.127-3.001 0.127l-1.464-6.348c0.328 0.045 0.655 0.1 0.973 0.145 1.601 0.246 3.401 0.582 5.329 0.918l1.164 5.011c0 1e-3 -0.373 0.037-0.937 0.056zm1.237-14.505c2.419 0.4 5.138 0.864 8.012 1.373l2.292 8.585c-2.856-0.582-5.62-1.128-8.212-1.601l-2.092-8.357zm3.465 13.841l-0.919-3.674c2.61 0.482 5.384 1.037 8.248 1.619l0.373 1.401-7.702 0.654zm15.887-2.01c-1.892-0.364-3.81-0.8-5.693-1.182l-2.237-8.667c1.491 0.273 3.01 0.546 4.538 0.818 1.528 0.255 3.065 0.5 4.601 0.755l2.41 7.948-3.619 0.328zm2.919-15.487c2.801 0.1 5.456 0.191 7.921 0.282l2.192 7.166c-2.637-0.437-5.447-0.9-8.321-1.382l-1.792-6.066zm4.12 13.941l-1.792-6.066c2.892 0.482 5.711 0.946 8.339 1.382l1.109 3.638-7.656 1.046zm18.225-1.901l-7.157 0.864-0.891-3.047c3.01 0.437 5.647 0.818 7.721 1.128l0.327 1.055zm-0.883-2.855c-2.119-0.318-4.747-0.7-7.694-1.128l-2.237-7.657c2.755 0.036 5.193 0.073 7.248 0.091l2.683 8.694zm-3.21-10.395c-2.064-0.027-4.493-0.064-7.221-0.1l-2.392-8.167 7.157 0.337 2.456 7.93zm-2.992-9.658l-7.13-0.337-2.182-7.466 6.393-1.655 2.919 9.458zm251.32-152.33l-1.573 1.437-11.859-13.687 1.701-1.428 11.731 13.678zm153.11-569.39s-0.046 3.128-0.127 9.003c9e-3 5.875-0.327 14.469-0.818 25.409-0.673 10.922-1.519 24.199-3.356 39.314-0.427 3.783-0.837 7.694-1.446 11.695-0.573 4.001-1.109 8.13-1.746 12.35-0.7 4.211-1.41 8.53-2.146 12.95-0.746 4.42-1.692 8.903-2.546 13.505-3.647 18.37-8.403 38.104-14.569 58.648-6.148 20.544-13.696 41.896-22.744 63.477-9.049 21.589-19.716 43.342-31.738 64.786-2.937 5.402-6.157 10.667-9.294 16.005-1.537 2.692-3.219 5.293-4.856 7.93-1.646 2.637-3.292 5.275-4.938 7.912-6.821 10.413-13.75 20.816-21.171 30.874-29.31 40.514-63.768 77.227-99.216 107.9-17.761 15.296-35.749 29.11-53.4 41.36-17.643 12.25-34.94 22.917-51.272 32.093-4.092 2.283-8.066 4.565-12.059 6.611-1.983 1.046-3.938 2.083-5.875 3.101-1.928 1.028-3.838 2.046-5.756 2.974-3.82 1.901-7.548 3.747-11.168 5.547-3.656 1.709-7.212 3.374-10.658 4.984-3.428 1.655-6.821 3.092-10.076 4.52-3.265 1.401-6.375 2.846-9.422 4.083s-5.975 2.437-8.767 3.574c-1.391 0.573-2.755 1.128-4.083 1.673-1.346 0.509-2.656 1.009-3.938 1.491-2.546 0.964-4.965 1.882-7.239 2.755-1.137 0.427-2.237 0.846-3.301 1.255-1.073 0.373-2.11 0.737-3.11 1.091-4.001 1.41-7.403 2.61-10.158 3.583s-4.911 1.61-6.339 2.092c-1.437 0.464-2.183 0.709-2.183 0.709l-0.49 0.159-1e-3 -4e-3s-0.394 0.131-1.159 0.381l-1.014 0.329c-1.446 0.455-3.556 1.201-6.357 2.037-2.81 0.828-6.266 1.855-10.331 3.065-1.018 0.3-2.073 0.618-3.156 0.946-1.1 0.3-2.237 0.609-3.41 0.927-2.346 0.628-4.847 1.31-7.475 2.019-21.089 5.638-51.609 12.513-88.858 16.86-18.616 2.192-38.895 3.738-60.412 4.22-21.526 0.482-44.252-0.1-67.614-2.046-46.716-3.865-96.07-13.223-143.52-28.783-47.535-15.269-92.987-36.713-133.06-60.957-20.016-12.177-38.686-25.054-55.765-38.086-17.088-13.023-32.575-26.209-46.343-38.932-13.778-12.732-25.891-24.945-36.167-36.203-1.291-1.401-2.601-2.746-3.819-4.129-1.219-1.373-2.419-2.737-3.601-4.065-2.346-2.674-4.674-5.202-6.802-7.712-2.128-2.519-4.174-4.938-6.12-7.248-0.982-1.146-1.937-2.273-2.865-3.374-0.9-1.119-1.782-2.219-2.637-3.283-1.719-2.128-3.338-4.147-4.865-6.038-0.764-0.955-1.5-1.873-2.219-2.756-0.691-0.909-1.364-1.782-2.01-2.628-2.583-3.374-4.783-6.239-6.566-8.567-1.895-2.581-3.302-4.499-4.191-5.712l-1.42-1.945s-0.464-0.627-1.355-1.855c-0.873-1.237-2.255-3.001-3.901-5.429-1.664-2.41-3.719-5.375-6.148-8.867-1.228-1.728-2.465-3.647-3.801-5.684-1.337-2.037-2.765-4.192-4.265-6.475-1.528-2.264-3.037-4.72-4.629-7.284-1.601-2.565-3.274-5.238-5.02-8.039-1.682-2.828-3.428-5.784-5.238-8.839-0.909-1.528-1.828-3.092-2.765-4.674-0.9-1.61-1.81-3.237-2.737-4.902-0.928-1.664-1.873-3.347-2.828-5.065-0.955-1.71-1.955-3.438-2.874-5.238-1.892-3.574-3.829-7.248-5.82-11.022-1.937-3.81-3.856-7.748-5.866-11.75-0.491-1-1-2.01-1.5-3.028-0.482-1.028-0.955-2.055-1.446-3.101-0.964-2.073-1.946-4.174-2.937-6.293-7.839-17.006-15.578-35.776-22.662-56.019-7.084-20.234-13.523-41.951-18.87-64.732-10.731-45.561-16.678-95.46-16.742-145.59 0.055-50.126 5.993-100.04 16.715-145.6 5.347-22.781 11.777-44.497 18.861-64.741 7.084-20.243 14.823-39.013 22.662-56.019 0.982-2.119 1.964-4.22 2.937-6.293 0.482-1.037 0.964-2.073 1.437-3.101 0.509-1.019 1.009-2.028 1.501-3.028 2.001-4.01 3.956-7.93 5.857-11.75 1.992-3.774 3.938-7.448 5.82-11.022 0.928-1.801 1.919-3.529 2.874-5.247 0.964-1.71 1.901-3.392 2.837-5.056 0.919-1.664 1.837-3.301 2.728-4.902 0.937-1.591 1.864-3.147 2.765-4.674 1.81-3.065 3.556-6.011 5.238-8.848 1.746-2.792 3.419-5.475 5.02-8.03 1.601-2.565 3.092-5.029 4.629-7.284 1.5-2.283 2.928-4.447 4.265-6.484 1.337-2.028 2.565-3.956 3.801-5.684 2.419-3.483 4.474-6.457 6.148-8.867 1.637-2.428 3.019-4.201 3.901-5.429 0.891-1.228 1.346-1.855 1.346-1.855l0.309-0.418s1.846-2.519 5.302-7.248c3.583-4.629 8.721-11.522 15.66-19.98 0.855-1.073 1.737-2.164 2.637-3.283 0.928-1.1 1.883-2.228 2.856-3.383 1.955-2.31 3.992-4.72 6.12-7.239 2.137-2.519 4.456-5.038 6.802-7.721 1.182-1.328 2.383-2.683 3.61-4.065 1.21-1.382 2.519-2.728 3.81-4.129 10.276-11.258 22.399-23.472 36.158-36.203 13.778-12.732 29.265-25.918 46.343-38.941 17.079-13.032 35.749-25.918 55.756-38.104 40.068-24.245 85.511-45.698 133.06-60.967 23.735-7.703 47.907-14.087 72.025-18.797 24.117-4.765 48.126-8.066 71.488-10.013 23.354-1.946 46.089-2.537 67.614-2.055 21.517 0.473 41.796 2.019 60.412 4.201 37.249 4.347 67.769 11.222 88.858 16.851 2.637 0.718 5.129 1.391 7.475 2.028 1.173 0.309 2.31 0.618 3.41 0.919 1.091 0.327 2.146 0.637 3.156 0.946 4.065 1.209 7.53 2.237 10.331 3.065 2.801 0.837 4.92 1.582 6.357 2.037 1.437 0.464 2.218 0.602 2.218 0.602l0.447 0.262 2.182 0.709c1.437 0.482 3.583 1.119 6.339 2.092 2.765 0.964 6.166 2.164 10.167 3.574 1 0.355 2.037 0.718 3.11 1.091 1.064 0.409 2.164 0.828 3.301 1.264 2.274 0.864 4.684 1.782 7.239 2.746 1.273 0.482 2.583 0.982 3.929 1.491 1.337 0.546 2.701 1.1 4.092 1.673 2.792 1.137 5.72 2.328 8.767 3.574 3.047 1.237 6.157 2.674 9.421 4.083 3.256 1.428 6.648 2.856 10.076 4.511 3.438 1.61 7.002 3.274 10.658 4.984 3.62 1.801 7.348 3.647 11.168 5.547 1.919 0.928 3.828 1.946 5.756 2.974 1.937 1.019 3.901 2.055 5.884 3.101 3.983 2.037 7.966 4.329 12.059 6.602 16.333 9.176 33.63 19.843 51.272 32.093 17.652 12.241 35.64 26.055 53.409 41.351 35.449 30.665 69.906 67.369 99.225 107.88 7.43 10.058 14.359 20.462 21.18 30.874 1.646 2.637 3.292 5.275 4.938 7.912 1.628 2.637 3.319 5.238 4.865 7.921 3.128 5.347 6.357 10.604 9.285 16.015 12.031 21.444 22.699 43.188 31.756 64.777 9.049 21.58 16.597 42.933 22.753 63.477 6.166 20.544 10.931 40.269 14.578 58.639 0.855 4.602 1.792 9.085 2.546 13.505 0.737 4.42 1.446 8.739 2.146 12.95 0.646 4.22 1.173 8.348 1.755 12.35 0.609 4.001 1.019 7.912 1.446 11.695 1.837 15.114 2.683 28.392 3.356 39.314 0.5 10.94 0.837 19.534 0.828 25.409 0.082 5.875 0.127 9.003 0.127 9.003v0.514zm38.905-275.09l-0.846-2.055 16.642-6.93 0.882 1.937-16.678 7.048zm64.295 539.11l0.955 1.619-1.21-0.418 0.255-1.201zm39.368-261.65c-0.973 1.919-2.174 4.283-3.528 6.957l-7.967-0.236c0.909-2.601 1.719-4.911 2.401-6.848l9.094 0.127zm-37.768 77.281l7.903 0.991c-1.091 1.955-2.128 3.829-3.083 5.556l-7.776-1.037c0.928-1.727 1.92-3.582 2.956-5.51zm-0.682-2.364c0.882-1.928 1.682-3.974 2.592-6.084l0.555 0.064c-1.064 2.055-2.046 4.074-3.11 6.029l-0.037-9e-3zm1.846 0.209c1.064-1.955 2.046-3.983 3.101-6.029l8.076 0.918c-1.091 2.037-2.092 4.047-3.183 5.984l-7.994-0.873zm1.719-8.585c0.782-1.855 1.591-3.756 2.419-5.693l1.209 0.109c-0.955 1.873-1.919 3.774-2.892 5.666l-0.736-0.082zm2.537 0.282c0.973-1.91 1.946-3.81 2.901-5.684l8.23 0.791c-0.991 1.91-2.001 3.847-3.019 5.793l-8.112-0.9zm13.823-45.606c-0.964 2.546-1.964 5.193-2.992 7.903l-9.321-0.555 3.192-7.521 9.121 0.173zm-7.539-3.938l2.901-7.33 8.676 0.146c-0.819 2.31-1.701 4.793-2.628 7.412l-8.949-0.228zm5.138 15.069l4.092 0.209c-0.673 1.291-1.319 2.546-1.937 3.747-0.636 1.191-1.246 2.337-1.809 3.419l-3.138-0.209c0.382-0.955 0.764-1.901 1.146-2.846 0.555-1.447 1.101-2.893 1.646-4.32zm-1.418 10.776c-0.828 1.664-1.782 3.565-2.819 5.656l-2.228-0.191c0.773-1.891 1.537-3.792 2.301-5.693l2.746 0.228zm-4.511 9.085c-0.882 1.846-1.837 3.783-2.865 5.756l-1.455-0.136c0.828-1.892 1.61-3.82 2.383-5.766l1.937 0.146zm-1.055 5.92c1.037-1.992 1.991-3.929 2.883-5.775l8.366 0.655c-0.455 0.928-0.928 1.891-1.418 2.874-0.5 0.982-1.028 1.983-1.555 3.01l-8.276-0.764zm4.556-9.194l2.828-5.656 8.421 0.709c-0.809 1.51-1.555 2.937-2.192 4.238-0.227 0.464-0.464 0.937-0.709 1.419l-8.348-0.71zm4.611-9.085c0.573-1.091 1.191-2.246 1.828-3.447 0.627-1.2 1.273-2.455 1.946-3.747l8.876 0.455c-0.7 1.273-1.391 2.519-2.055 3.747-0.691 1.219-1.364 2.41-2.01 3.565l-8.585-0.573zm3.51-10.358l-4.511-0.264c1.037-2.737 2.046-5.411 3.019-7.976l5.784 0.109c-1.445 2.738-2.891 5.485-4.292 8.131zm-0.091-11.94c0.928-2.628 1.81-5.12 2.628-7.43l7.494 0.118c-1.2 2.374-2.483 4.893-3.801 7.475l-6.321-0.163zm4.447-17.707c-0.691 1.955-1.501 4.247-2.401 6.83l-8.503-0.246 2.61-6.702 8.294 0.118zm-20.007-0.282l9.903 0.136-2.61 6.675-7.766-0.218 0.473-6.593zm-0.909 10.25l6.812 0.109-2.892 7.312-4.62-0.127 0.7-7.294zm-0.846 11.131l3.165 0.064-3.165 7.448-0.673-0.036 0.673-7.476zm-2.182 16.824s0.173-0.373 0.427-0.937c0.255-0.564 0.591-1.31 0.909-2.055 0.636-1.5 1.282-3.001 1.282-3.001l9.494 0.482c-0.891 2.355-1.801 4.747-2.792 7.139l-9.467-0.637 0.147-0.991zm-1.337 4.21l9.303 0.773c-0.764 1.892-1.537 3.792-2.301 5.684l-7.957-0.673 0.955-5.784zm-2.455 12.241c0.336-1.428 0.682-2.865 0.682-2.865l7.366 0.573c-0.773 1.937-1.555 3.856-2.383 5.738l-6.402-0.582s0.373-1.436 0.737-2.864zm-1.01 5.938l5.384 0.518c-0.819 1.928-1.628 3.829-2.41 5.675l-4.074-0.455 1.1-5.738zm-2.674 11.15c0.391-1.555 0.773-3.119 0.773-3.119l3.91 0.446c-0.918 2.119-1.719 4.165-2.601 6.093l-2.883-0.318c1e-3 -1e-3 0.429-1.547 0.801-3.102zm-1.828 5.183l2.974 0.373c-0.864 1.982-1.664 3.838-2.41 5.547l-1.419-0.191 0.855-5.729zm-1.3 7.867l0.991 0.118c-0.873 2.083-1.6 3.892-2.155 5.384l-0.055-9e-3 1.219-5.493zm-13.841 63.34s0.209-0.937 0.409-1.882c0.182-0.937 0.373-1.883 0.373-1.883l10.831 2.319s-0.4 0.919-0.791 1.837c-0.418 0.909-0.828 1.819-0.828 1.819l-9.994-2.21zm8.621 3.91l-1.755 2.81-7.757-1.273 0.627-3.538 8.885 2.001zm-6.102-9.294l-2.428-3.738 12.932 2.519-1.182 3.219-9.322-2zm-3.383-87.53l2.937 0.227s0.018-0.327 0.046-0.909c0.036-0.582 0.064-1.41 0.082-2.41 0.046-1.992 0.109-4.638 0.173-7.293s0.127-5.311 0.173-7.293c0.018-1 0.046-1.828 0.055-2.41v-0.909l9.685 0.091s-0.036 0.209-0.091 0.564c-0.064 0.364-0.155 0.891-0.282 1.528-0.246 1.273-0.573 3.019-0.937 4.902-0.709 3.747-1.51 8.012-1.846 10.094-0.309 2.083-1.191 5.757-1.937 8.903-0.773 3.137-1.419 5.766-1.419 5.766l-7.539-0.7 0.9-10.151zm-15.933 153.91c0.064 0.6 0.137 1.237 0.209 1.901l-0.709-0.209 0.5-1.692zm-15.914 40.823s0.118-0.3 0.291-0.737c0.164-0.446 0.391-1.037 0.609-1.628 0.455-1.182 0.9-2.364 0.9-2.364l-3.928-1.41 0.555-1.582-3.274-1.173 1.746-4.583 11.377 3.965s4.638 1.837 5.929 5.138c0.337 0.846 0.555 1.61 0.7 2.292 0 0-3.128 0.755-6.248 1.51-3.119 0.728-6.238 1.455-6.238 1.455l-2.419-0.883zm15.114 1.073s-0.327 1-0.646 2.001c-0.318 1-0.655 1.992-0.655 1.992l-8.63-3.165s2.492-0.582 4.974-1.164c2.492-0.609 4.984-1.21 4.984-1.21 0.073 0.991-0.027 1.546-0.027 1.546zm-13.087-25.463l1.564-2.646 4.02 1.619 0.928-2.874 3.801 1.228s0.582-1.81 1.173-3.61c0.291-0.909 0.582-1.81 0.8-2.483 0.227-0.682 0.355-1.137 0.355-1.137l1.982 0.609c0.1 0.973 0.146 1.946 0.218 2.937 0.318 4.856 1.182 9.258 1.783 11.84l-16.624-5.483zm18.489 6.102c-0.564-2.31-1.601-7.111-1.946-12.486-0.127-2.246-0.391-4.492-0.582-6.52l0.291-0.982-0.409-0.127c-0.173-1.628-0.328-3.083-0.455-4.265l3.274 0.973 0.609-2.046 0.354 0.1c9e-3 3.392 0.209 9.149 0.518 14.696 0.291 5.265 0.818 9.267 1.182 11.595l-2.836-0.938zm4.638 1.527c-0.355-2.092-0.964-6.348-1.273-12.204-0.318-5.275-0.5-10.758-0.518-14.169l4.829 1.419c0.346 3.147 1.373 10.104 3.156 15.696 1.864 5.829 4.574 11.131 5.675 13.177l-11.869-3.919zm7.611-23.617c0.646 3.456 1.755 9.567 2.201 12.477 0.327 2.182 1.328 5.775 2.274 8.867 0.491 1.537 0.937 2.946 1.255 3.974 0.337 1.028 0.555 1.673 0.555 1.682l0.336-0.1-0.409 1.282-0.582-0.191 0.6-0.3s-0.928-1.637-2.146-4.165c-1.219-2.537-2.719-5.966-3.874-9.585-1.646-5.065-2.619-11.431-3.01-14.76l2.8 0.819zm-2.446-51.745l-9e-3 9e-3 0.273-2.565 7.812 1.71-1.319 2.756-6.757-1.91zm9.249 12.995l-6.712-1.455 2.064-2.555v-9e-3l6.248 1.591-1.6 2.428zm2.746-4.174l-5.957-1.646 1.482-2.837 6.066 1.764-1.591 2.719zm2.337-4.811l-5.638-1.128 1.792-2.928 5.393 0.909-1.547 3.147zm2.21-5.556l-4.711-0.746 1.428-2.619 4.492 1.091-1.209 2.274zm2.92-6.148c-0.419 0.955-0.846 1.901-0.846 1.901l-4.338-1.164s0.428-0.982 0.855-1.955c0.409-0.982 0.819-1.964 0.819-1.964l4.32 1.273c-1e-3 0-0.383 0.964-0.81 1.909zm1.891-3.828l-4.256-0.855 1.31-3.865 3.765 0.464-0.819 4.256zm3.247-54.692l-7.621-1.055c0.809-1.501 1.791-3.31 2.883-5.338l7.803 0.909c-1.201 2.165-2.247 4.02-3.065 5.484zm17.924 2.492l-16.115-2.237c0.837-1.51 1.892-3.392 3.074-5.52l15.505 1.819-2.464 5.938zm2.655-7.621l-14.669-1.973c0.964-1.746 2.001-3.619 3.083-5.575l13.441 1.691-1.855 5.857zm3.747-11.44c-0.564 1.51-1.2 3.01-1.2 3.01l-12.859-1.419c1.091-1.937 2.091-3.947 3.165-5.975l12.05 1.373c-1e-3 1e-3 -0.583 1.51-1.156 3.011zm0.982-5.493l-10.677-1.191c1.019-1.955 2.037-3.901 3.028-5.811l9.176 0.882-1.527 6.12zm3.756-12.295l-0.764 3.074-9.058-0.837c0.537-1.028 1.055-2.037 1.564-3.028 0.491-0.982 0.964-1.946 1.419-2.874l7.53 0.582s-0.345 1.546-0.691 3.083zm1.301-6.457l-6.493-0.555c0.146-0.3 0.291-0.591 0.437-0.882 0.709-1.446 1.546-3.056 2.483-4.783l5.12 0.427-1.547 5.793zm3.101-13.314c-0.464 1.883-0.919 3.756-0.919 3.756l-3.783-0.255c0.655-1.164 1.328-2.365 2.019-3.592 0.682-1.219 1.373-2.474 2.073-3.747l1.446 0.073s-0.418 1.883-0.836 3.765zm2-11.958c-0.946 1.682-1.901 3.374-2.846 5.047l-8.94-0.537c1.419-2.674 2.883-5.447 4.338-8.203l8.303 0.155-0.855 3.538zm0.792-7.157l-6.321-0.164c1.319-2.601 2.61-5.129 3.81-7.494l3.811 0.055-1.3 7.603zm2.319-10.832l-3.174-0.091c1.382-2.719 2.592-5.111 3.538-6.984l1.109 0.018-1.473 7.057z"/>
</svg>
